<?xml version="1.0" standalone="no"?><!DOCTYPE svg PUBLIC "-//W3C//DTD SVG 1.1//EN" "http://www.w3.org/Graphics/SVG/1.1/DTD/svg11.dtd"><svg t="1481343096355" class="icon" style="" viewBox="0 0 1024 1024" version="1.1" xmlns="http://www.w3.org/2000/svg" p-id="1140" xmlns:xlink="http://www.w3.org/1999/xlink" width="200" height="200"><defs><style type="text/css"></style></defs><path d="M348.8 521.6c6.4 6.4 14.72 9.6 22.4 9.6s16.64-3.2 22.4-9.6l57.6-57.6c12.8-12.8 12.8-32.64 0-45.44l-57.6-57.6c-12.8-12.8-32.64-12.8-45.44 0-12.8 12.8-12.8 32.64 0 45.44l35.2 35.2-35.2 35.2C336 488.96 336 509.44 348.8 521.6z" p-id="1141"></path><path d="M675.2 361.6c-12.8-12.8-32.64-12.8-45.44 0l-57.6 57.6c-12.8 12.8-12.8 32.64 0 45.44l57.6 57.6c6.4 6.4 14.72 9.6 22.4 9.6s16.64-3.2 22.4-9.6c12.8-12.8 12.8-32.64 0-45.44l-35.2-35.2 35.2-35.2C688 394.24 688 373.76 675.2 361.6z" p-id="1142"></path><path d="M512 563.2c-67.84 0-130.56 33.92-167.04 91.52-9.6 14.72-5.12 34.56 9.6 44.16 14.72 9.6 34.56 5.12 44.16-9.6C423.68 650.24 465.92 627.2 512 627.2s88.32 23.04 113.28 62.08c6.4 9.6 16.64 14.72 26.88 14.72 5.76 0 12.16-1.92 17.28-5.12 14.72-9.6 19.2-29.44 9.6-44.16C642.56 597.12 579.84 563.2 512 563.2z" p-id="1143"></path><path d="M512 128c-211.84 0-384 172.16-384 384s172.16 384 384 384 384-172.16 384-384S723.84 128 512 128zM512 832c-176.64 0-320-143.36-320-320s143.36-320 320-320 320 143.36 320 320S688.64 832 512 832z" p-id="1144"></path></svg>