<?xml version="1.0" standalone="no"?><!DOCTYPE svg PUBLIC "-//W3C//DTD SVG 1.1//EN" "http://www.w3.org/Graphics/SVG/1.1/DTD/svg11.dtd"><svg t="1481343042006" class="icon" style="" viewBox="0 0 1026 1024" version="1.1" xmlns="http://www.w3.org/2000/svg" p-id="750" xmlns:xlink="http://www.w3.org/1999/xlink" width="200.390625" height="200"><defs><style type="text/css"></style></defs><path d="M504.78592 639.66208c125.9776 0 178.3552 113.23904 180.54144 118.08256l-42.38848 19.05152c-1.66912-3.69152-41.87648-90.6496-138.12736-90.6496-103.04 1.20832-142.24384 86.98368-143.8464 90.624l-42.48064-18.8416c2.11968-4.77184 53.21728-116.70528 183.86432-118.24128l2.43712-0.0256z" fill="" p-id="751"></path><path d="M502.24128 924.44672c-211.7376 0-384-172.2624-384-384s172.2624-384 384-384c211.74272 0 384 172.2624 384 384s-172.25728 384-384 384z m0-711.11168c-180.36736 0-327.11168 146.74432-327.11168 327.11168s146.74432 327.11168 327.11168 327.11168 327.11168-146.74432 327.11168-327.11168-146.7136-327.11168-327.11168-327.11168z" fill="" p-id="752"></path><path d="M346.45504 473.76896a44.34432 44.34432 0 0 0 44.34432 44.34432c24.51968 0 44.34432-19.85536 44.34432-44.34432s-19.82464-44.34432-44.34432-44.34432a44.32896 44.32896 0 0 0-44.34432 44.34432zM568.65792 473.76896a44.34432 44.34432 0 0 0 44.34432 44.34432c24.51968 0 44.34432-19.85536 44.34432-44.34432s-19.82464-44.34432-44.34432-44.34432a44.32896 44.32896 0 0 0-44.34432 44.34432z" fill="" p-id="753"></path></svg>