<?xml version="1.0" standalone="no"?><!DOCTYPE svg PUBLIC "-//W3C//DTD SVG 1.1//EN" "http://www.w3.org/Graphics/SVG/1.1/DTD/svg11.dtd"><svg t="1481343067297" class="icon" style="" viewBox="0 0 1024 1024" version="1.1" xmlns="http://www.w3.org/2000/svg" p-id="876" xmlns:xlink="http://www.w3.org/1999/xlink" width="200" height="200"><defs><style type="text/css"></style></defs><path d="M512 137.6c-198.4 0-358.4 160-358.4 358.4s160 358.4 358.4 358.4c198.4 0 358.4-160 358.4-358.4S710.4 137.6 512 137.6zM512 790.4c-163.2 0-294.4-131.2-294.4-294.4s131.2-294.4 294.4-294.4 294.4 131.2 294.4 294.4S675.2 790.4 512 790.4z" p-id="877"></path><path d="M374.4 393.6m-57.6 0a1.8 1.8 0 1 0 115.2 0 1.8 1.8 0 1 0-115.2 0Z" p-id="878"></path><path d="M652.8 393.6m-57.6 0a1.8 1.8 0 1 0 115.2 0 1.8 1.8 0 1 0-115.2 0Z" p-id="879"></path><path d="M652.8 505.6c-19.2 0-32 12.8-32 32 0 54.4-48 99.2-105.6 99.2s-105.6-44.8-105.6-99.2c0-19.2-12.8-32-32-32s-32 12.8-32 32c0 89.6 76.8 163.2 169.6 163.2s169.6-73.6 169.6-163.2C684.8 521.6 672 505.6 652.8 505.6z" p-id="880"></path></svg>