<?xml version="1.0" standalone="no"?><!DOCTYPE svg PUBLIC "-//W3C//DTD SVG 1.1//EN" "http://www.w3.org/Graphics/SVG/1.1/DTD/svg11.dtd"><svg t="1481343082062" class="icon" style="" viewBox="0 0 1024 1024" version="1.1" xmlns="http://www.w3.org/2000/svg" p-id="1008" xmlns:xlink="http://www.w3.org/1999/xlink" width="200" height="200"><defs><style type="text/css"></style></defs><path d="M396.8 435.2m-51.2 0a8 8 0 1 0 102.4 0 8 8 0 1 0-102.4 0Z" p-id="1009"></path><path d="M627.2 435.2m-51.2 0a8 8 0 1 0 102.4 0 8 8 0 1 0-102.4 0Z" p-id="1010"></path><path d="M512 140.8c-204.8 0-371.2 166.4-371.2 371.2s166.4 371.2 371.2 371.2 371.2-166.4 371.2-371.2S716.8 140.8 512 140.8zM512 844.8c-183.68 0-332.8-149.12-332.8-332.8s149.12-332.8 332.8-332.8 332.8 149.12 332.8 332.8S695.68 844.8 512 844.8z" p-id="1011"></path><path d="M640 620.8 384 620.8c-10.88 0-19.2 8.32-19.2 19.2s8.32 19.2 19.2 19.2l256 0c10.88 0 19.2-8.32 19.2-19.2S650.88 620.8 640 620.8z" p-id="1012"></path></svg>