<?xml version="1.0" standalone="no"?>
<!DOCTYPE svg PUBLIC "-//W3C//DTD SVG 1.1//EN" "http://www.w3.org/Graphics/SVG/1.1/DTD/svg11.dtd" >
<svg xmlns="http://www.w3.org/2000/svg">
<metadata>
Created by FontForge 20120731 at Thu Dec 15 02:43:18 2016
 By admin
</metadata>
<defs>
<font id="iconfont" horiz-adv-x="1024" >
  <font-face 
    font-family="iconfont"
    font-weight="500"
    font-stretch="normal"
    units-per-em="1024"
    panose-1="2 0 6 3 0 0 0 0 0 0"
    ascent="896"
    descent="-128"
    x-height="792"
    bbox="0 -156 1024 892"
    underline-thickness="0"
    underline-position="0"
    unicode-range="U+0078-E8B8"
  />
<missing-glyph 
 />
    <glyph glyph-name=".notdef" 
 />
    <glyph glyph-name=".notdef" 
 />
    <glyph glyph-name=".null" horiz-adv-x="0" 
 />
    <glyph glyph-name="nonmarkingreturn" horiz-adv-x="341" 
 />
    <glyph glyph-name="x" unicode="x" horiz-adv-x="1001" 
d="M281 543q-27 -1 -53 -1h-83q-18 0 -36.5 -6t-32.5 -18.5t-23 -32t-9 -45.5v-76h912v41q0 16 -0.5 30t-0.5 18q0 13 -5 29t-17 29.5t-31.5 22.5t-49.5 9h-133v-97h-438v97zM955 310v-52q0 -23 0.5 -52t0.5 -58t-10.5 -47.5t-26 -30t-33 -16t-31.5 -4.5q-14 -1 -29.5 -0.5
t-29.5 0.5h-32l-45 128h-439l-44 -128h-29h-34q-20 0 -45 1q-25 0 -41 9.5t-25.5 23t-13.5 29.5t-4 30v167h911zM163 247q-12 0 -21 -8.5t-9 -21.5t9 -21.5t21 -8.5q13 0 22 8.5t9 21.5t-9 21.5t-22 8.5zM316 123q-8 -26 -14 -48q-5 -19 -10.5 -37t-7.5 -25t-3 -15t1 -14.5
t9.5 -10.5t21.5 -4h37h67h81h80h64h36q23 0 34 12t2 38q-5 13 -9.5 30.5t-9.5 34.5q-5 19 -11 39h-368zM336 498v228q0 11 2.5 23t10 21.5t20.5 15.5t34 6h188q31 0 51.5 -14.5t20.5 -52.5v-227h-327z" />
    <glyph glyph-name="shipin" unicode="&#xe600;" horiz-adv-x="1000" 
d="M882 -83l-91 33v-15q0 -30 -21.5 -51.5t-51.5 -21.5h-584q-30 0 -51.5 21.5t-21.5 51.5v365q0 30 21.5 51.5t51.5 21.5h12q-39 28 -62 71t-23 93q0 83 59 142t142 59q50 0 93 -23t71 -62q28 39 71 62t93 23q83 0 142 -59t59 -142q0 -50 -23 -93t-63 -71h13
q30 0 51.5 -21.5t21.5 -51.5v-15l91 33q30 0 42.5 -12t12.5 -42v-292q0 -30 -12.5 -42.5t-42.5 -12.5zM389 537q0 53 -37 90.5t-90 37.5t-90.5 -37.5t-37.5 -90.5t37.5 -90t90.5 -37t90 37t37 90v0v0zM590 665q-53 0 -90.5 -37.5t-37.5 -90.5t37.5 -90t90.5 -37t90.5 37
t37.5 90t-37.5 90.5t-90.5 37.5zM426 422q-20 -28 -49 -49h98q-29 21 -49 49zM736 245q0 31 -21.5 52t-51.5 21h-474q-31 0 -52 -21t-21 -52v-255q0 -30 21 -51.5t52 -21.5h474q30 0 51.5 21.5t21.5 51.5v255v0zM882 209q0 15 -10.5 25.5t-26.5 10.5l-54 -31v-193l54 -31
q16 0 26.5 10.5t10.5 26.5v182z" />
    <glyph glyph-name="rili" unicode="&#xe62f;" 
d="M290 584q19 0 31.5 13t12.5 33v43v0v0v43q0 19 -12 32q-20 21 -48 10.5t-28 -40.5q-1 -19 0 -45v-42q0 -20 12.5 -33.5t31.5 -13.5zM737.5 583q18.5 0 31 13.5t12.5 32.5v43v0v0v43q0 20 -11 32q-21 22 -49 11t-28 -41v-45v-42q0 -20 13 -33.5t31.5 -13.5zM544 255h118
v-87h-118v87zM723 374h117v-87h-117v87zM723 255h117v-87h-117v87zM365 136h118v-88h-118v88zM544 136h117v-87h-117v87zM723 136h117v-87h-117v87zM186 136h118v-88h-118v88v0zM187 255h117v-88h-117v88v0zM544 374h117v-87h-117v87zM365 255h118v-87h-118v87zM365 374h118
v-87h-118v87zM942 673h-110v-15q-1 -40 -26 -68t-63 -31h-7t-8 1q-37 3 -62 31.5t-25 67.5v14h-258v-15q0 -42 -27.5 -70.5t-67.5 -28.5t-68 29t-28 71v14h-110q-8 0 -13 -5t-5 -12v-739q0 -7 5 -12t13 -5h860q8 0 13 5t5 12v739q0 7 -5 12t-13 5zM907 -42h-787v24v28v430
h787v-430v0v-52v0v0z" />
    <glyph glyph-name="zhaopian" unicode="&#xe672;" 
d="M795 677h-566q-39 0 -66.5 -27.5t-27.5 -66.5v-566q0 -39 27.5 -66.5t66.5 -27.5h566q39 0 66.5 27.5t27.5 66.5v566q0 39 -27.5 66.5t-66.5 27.5zM842 17q0 -19 -14 -33t-33 -14h-566q-19 0 -33 14t-14 33v566q0 19 14 33t33 14h566q19 0 33 -14t14 -33v-566zM614 201
l88 70l56 -38q6 -4 13 -4q13 0 20 11q5 8 3.5 17.5t-10.5 14.5l-70 48q-14 9 -28 -2v0l-112 -89l-166 114h-1q-2 2 -6 3l-1 0.5l-1 0.5h-6h-2h-1q-1 0 -2 -0.5l-1 -0.5l-6 -3v0l-141 -94q-8 -5 -10 -15t3 -18q7 -10 20 -10q7 0 13 4l128 85l364 -250q6 -4 13 -4q13 0 20 10
q5 8 3.5 17.5t-9.5 15.5zM571 371q44 0 75 31t31 75t-31 75t-75 31t-75 -31t-31 -75t31 -75t75 -31zM570.5 536q24.5 0 42 -17.5t17.5 -42t-17.5 -41.5t-41.5 -17t-41.5 17t-17.5 41.5t17 42t41.5 17.5z" />
    <glyph glyph-name="yin" unicode="&#xe619;" 
d="M271 64l379 6q46 10 76 47.5t30 85.5q0 57 -40 97t-97 40h-9l-46 -1q-9 11 -21.5 23.5t-16.5 17.5q-53 63 -135 63q-67 0 -116.5 -44.5t-57.5 -110.5q0 -7 -3 -33h-53q-5 1 -10 1q-39 0 -67 -28t-28 -67q0 -37 24.5 -64t60.5 -31v-2h130v0zM818 222q-7 76 -64 128.5
t-135 52.5q-19 0 -38 -4q-22 31 -52 54l2 -2q18 39 54 63t80 24q68 0 112 -54q4 -3 14 -13.5t18 -19.5h38h8q47 0 80.5 -33t33.5 -81q0 -40 -25 -71t-64 -40l-62 -4v0zM492 476q23 49 69.5 78.5t103.5 29.5q48 0 89.5 -22.5t68.5 -60.5q16 3 32 3q69 0 118 -49t49 -118
t-49 -117.5t-118 -48.5h-39q-11 -72 -67 -119.5t-130 -47.5q-44 0 -162.5 0.5t-180.5 0.5l-125 1q-59 0 -101.5 47t-42.5 108q0 59 42.5 101t101.5 42h12q13 83 77.5 139t150.5 56q53 0 101 -23z" />
    <glyph glyph-name="qing" unicode="&#xe6f3;" 
d="M533.5 540q-99.5 0 -170 -70.5t-70.5 -169.5t70.5 -169.5t170 -70.5t170 70.5t70.5 169.5t-70.5 169.5t-170 70.5zM533.5 118q-75.5 0 -129 53.5t-53.5 128.5t53.5 128.5t129 53.5t129 -53.5t53.5 -128.5t-53.5 -128.5t-129 -53.5zM533.5 578q12.5 0 21 8.5t8.5 20.5v116
q0 12 -8.5 20.5t-21 8.5t-21 -8.5t-8.5 -20.5v-116q0 -12 8.5 -20.5t21 -8.5zM533.5 22q-12.5 0 -21 -8.5t-8.5 -20.5v-116q0 -12 8.5 -20.5t21 -8.5t21 8.5t8.5 20.5v116q0 12 -8.5 20.5t-21 8.5zM956 329h-115q-12 0 -20.5 -8.5t-8.5 -20.5t8.5 -20.5t20.5 -8.5h115
q12 0 20.5 8.5t8.5 20.5t-8.5 20.5t-20.5 8.5zM255 300q0 12 -8.5 20.5t-20.5 8.5h-115q-12 0 -20.5 -8.5t-8.5 -20.5t8.5 -20.5t20.5 -8.5h115q12 0 20.5 8.5t8.5 20.5zM752 489q12 0 20 9l82 81q8 9 8 21t-8.5 20.5t-20.5 8.5t-20 -9l-82 -81q-8 -9 -8 -21t8.5 -20.5
t20.5 -8.5zM296 104l-81 -81q-9 -9 -9 -21t8.5 -20.5t21 -8.5t20.5 8l82 82q8 8 8 20.5t-8.5 21t-20.5 8.5t-21 -9zM772 104q-8 9 -20 9t-20.5 -8.5t-8.5 -21t8 -20.5l82 -82q8 -8 20 -8t20.5 8.5t8.5 20.5t-8 21zM296 498q9 -9 21 -9t20.5 8.5t8.5 20.5t-8 21l-82 81
q-8 9 -20.5 9t-21 -8.5t-8.5 -20.5t9 -21z" />
    <glyph glyph-name="fenxiang" unicode="&#xe60a;" 
d="M743 166q-45 0 -82.5 -22.5t-58.5 -59.5l-199 106q22 38 22 82q0 31 -12 60l220 140q48 -62 127 -62q67 0 114 47t47 113.5t-47 114t-114 47.5t-114 -47.5t-47 -113.5q0 -31 11 -59l-220 -140q-49 61 -126 61q-67 0 -114 -47.5t-47 -114t47 -114t114 -47.5q63 0 110 44
l211 -114q-3 -17 -3 -35q0 -66 47 -113.5t113.5 -47.5t114 47.5t47.5 114t-47.5 113.5t-113.5 47zM760 681q46 0 78.5 -32t32.5 -78t-32.5 -78.5t-78.5 -32.5t-78 32.5t-32 78.5t32 78t78 32zM264 161q-46 0 -78.5 32.5t-32.5 78t32.5 78t78.5 32.5t78.5 -32.5t32.5 -78
t-32.5 -78t-78.5 -32.5zM743 -105q-46 0 -78.5 32t-32.5 78t32.5 78.5t78.5 32.5t78 -32.5t32 -78.5t-32 -78t-78 -32z" />
    <glyph glyph-name="tubiao112" unicode="&#xe633;" horiz-adv-x="1025" 
d="M577 800v-23q0 -30 18.5 -59t46.5 -43l64 -35q28 -19 65 -19q32 0 58 15l19 11l66 -111l-20 -11q-29 -16 -44.5 -48t-11.5 -64v0q2 -12 2 -29l-2 -30v0q-4 -32 11.5 -63.5t44.5 -48.5l20 -11l-66 -111l-19 11q-26 15 -58 15q-37 0 -65 -18l-64 -36q-28 -14 -46.5 -42.5
t-18.5 -59.5v-22h-131v22q0 31 -18 59.5t-47 42.5l-64 36q-28 18 -64 18q-32 0 -58 -15l-20 -11l-66 111l20 11q29 17 45 48.5t11 63.5v0q-2 13 -2 30l2 29v0q5 32 -11 64t-45 48l-20 11l66 111l19 -11q26 -15 58 -15q37 0 65 19l64 35q29 14 47 43t18 59v23h131zM511.5 192
q81.5 0 139.5 56t58 135.5t-58 136t-139.5 56.5t-139 -56.5t-57.5 -136t57.5 -135.5t139 -56zM610 864h-197q-13 0 -23 -9.5t-10 -22.5v-55q0 -13 -8.5 -26t-21.5 -19l-67 -38q-13 -9 -31 -9q-14 0 -25 6l-48 28q-7 4 -16 4q-19 0 -29 -16l-98 -166q-7 -12 -3.5 -25
t15.5 -19l48 -27q12 -7 19 -21t5 -27q-2 -14 -2 -38l2 -39q2 -13 -5 -27t-19 -20l-48 -27q-12 -7 -15.5 -20t3.5 -24l98 -167q10 -16 29 -16q9 0 16 5l48 27q11 6 26 6q18 0 30 -9l67 -38q13 -5 21.5 -18.5t8.5 -26.5v-54q0 -14 10 -23t23 -9h197q14 0 23.5 9t9.5 23v54
q0 13 8.5 26.5t21.5 18.5l68 38q12 9 30 9q14 0 25 -6l48 -27q8 -5 16 -5q19 0 29 16l98 167q7 11 3.5 24t-15.5 20l-48 27q-12 6 -19 20t-5 27q3 15 3 39l-3 38q-2 13 5 27t19 21l48 27q12 6 15.5 19t-3.5 25l-98 166q-10 16 -29 16q-9 0 -16 -4l-48 -28q-11 -6 -25 -6
q-18 0 -30 9l-68 38q-13 6 -21.5 19t-8.5 26v55q0 13 -9.5 22.5t-23.5 9.5v0zM512 256q-55 0 -93.5 37.5t-38.5 90.5t38.5 90.5t93 37.5t93 -37.5t38.5 -90.5t-38.5 -90.5t-92.5 -37.5v0z" />
    <glyph glyph-name="icon" unicode="&#xe62e;" 
d="M924 638h-825q-15 0 -25 -9t-10 -22v-614q0 -12 10 -21t25 -9h825q14 0 24.5 9t10.5 21v614q0 13 -10.5 22t-24.5 9v0zM890 24v0h-757v67l178 157l122 -108v-1v0l1 -1v0h1l72 -64q6 -5 14.5 -5t14.5 5t6 12.5t-6 13.5l-59 52l167 147l246 -217v-58v0zM890 134v0l-231 204
q-6 5 -14.5 5t-14.5 -5l-182 -161l-123 109q-6 5 -14.5 5t-14.5 -5l-163 -144v435h757v-443v0zM324 333v0q49 0 84 31t35 74.5t-35 74.5t-84.5 31t-84.5 -31t-35 -74.5t35 -74.5t85 -31v0zM324 508v0q32 0 55 -20.5t23 -49t-23 -49t-55.5 -20.5t-55.5 20.5t-23 49t23 49
t56 20.5v0z" />
    <glyph glyph-name="d502" unicode="&#xe646;" 
d="M289 191q-105 0 -180 56.5t-75 136.5t75 136.5t180 56.5t180 -56.5t75 -136.5t-75 -136.5t-180 -56.5zM289 513q-78 0 -134.5 -38t-56.5 -90.5t56.5 -91t134.5 -38.5t134.5 38.5t56.5 91t-56.5 90.5t-134.5 38zM735 191q-105 0 -180 56.5t-75 136.5t75 136.5t180 56.5
t180 -56.5t75 -136.5t-75 -136.5t-180 -56.5zM735 513q-78 0 -134.5 -38t-56.5 -90.5t56.5 -91t134.5 -38.5t134.5 38.5t56.5 91t-56.5 90.5t-134.5 38z" />
    <glyph glyph-name="duoyun" unicode="&#xe8b8;" horiz-adv-x="1025" 
d="M844 418q-14 82 -81 130.5t-147 33.5q-58 -11 -101 -53q-24 6 -48 6q-50 0 -93 -24.5t-70 -66.5q-32 20 -70 20q-56 0 -95.5 -40.5t-39.5 -97.5q0 -10 2 -20q-46 -19 -73.5 -60.5t-27.5 -93.5q0 -68 46 -113t115 -45h443q66 0 113.5 48.5t47.5 117.5q0 27 -9 52
q50 33 74 89.5t14 116.5zM604 43h-443q-49 0 -81 31t-32 78q0 41 24 72.5t63 41.5q10 2 15 11.5t2 20.5q-5 13 -5 28q0 37 25.5 63t61.5 26q35 0 60 -26q9 -9 21.5 -6.5t17.5 14.5q18 40 54.5 64.5t79.5 24.5q60 0 103.5 -44.5t43.5 -107.5q0 -10 -4 -32q-1 -10 4 -18
t15 -10q38 -9 63 -41t25 -73q0 -48 -33 -82.5t-80 -34.5zM734 256q-28 42 -74 59q1 12 1 19q0 55 -26 101t-70 73q27 19 60 26q60 11 110.5 -25.5t61.5 -99.5q7 -44 -10 -86t-53 -67zM658 656v0q10 0 17 7t7 18v69q-1 10 -7.5 17t-16.5 7v0q-10 0 -17 -7t-7 -18v-69
q0 -10 7 -17t17 -7zM1000 384v0h-67q-10 -1 -17 -8t-7 -17t7 -17.5t17 -7.5v0l67 1q10 0 17 7t7 17.5t-7 17.5t-17 7zM864.5 568q9.5 0 16.5 7l47 49q7 8 7 18t-7 17t-17 7t-17 -7l-47 -49q-7 -7 -6.5 -17.5t7.5 -17.5t16.5 -7zM404 575q7 -7 17 -7t17 7t7 17.5t-7 17.5
l-47 49q-7 7 -17 7t-17 -7t-7 -17t7 -18zM855 172q-7 7 -17 7t-17 -7t-7 -17t7 -17l47 -50q7 -7 17 -7t17 7t7 17.5t-7 17.5z" />
    <glyph glyph-name="sound" unicode="&#xe630;" 
d="M228 384q0 -13 5 -25t14 -20.5t21 -13.5t24.5 -5t24.5 5t21 13.5t14 20.5t5 25t-5 25t-14 20v1q-9 8 -21 13t-24.5 5t-24.5 -5t-21 -13v-1q-9 -8 -14 -20t-5 -25zM433 554q70 -70 70 -170t-70 -170q-11 -11 -11 -26t11 -26v0q11 -11 26 -11t26 11v0q92 92 92 222t-92 222
v0q-11 11 -26 11t-26 -11v0q-11 -11 -11 -26t11 -26zM572 -34q5 -5 11 -8q7 -3 14 -3h1q7 0 14 3q6 3 11 8q79 79 124 180q44 102 49 213v50q-5 111 -49 213q-45 101 -124 180q-10 11 -25.5 11t-26 -11t-10.5 -26t11 -26q74 -74 112.5 -169.5t38.5 -196.5t-38.5 -196.5
t-112.5 -169.5q-11 -11 -11 -26t11 -26z" />
    <glyph glyph-name="nulian" unicode="&#xe737;" 
d="M349 374q9 -9 22 -9q14 0 23 9l57 58q10 10 10 23t-10 22l-57 58q-10 10 -23 10t-22.5 -10t-9.5 -23t9 -22l35 -36l-35 -35q-9 -9 -9 -22.5t10 -22.5zM675 534q-9 10 -22.5 10t-22.5 -10l-58 -57q-9 -10 -9 -23t9 -23l58 -57q9 -10 22 -10q14 0 23 10q9 9 9 22.5t-9 22.5
l-36 35l36 36q10 9 10 22t-10 22zM512 333q-51 0 -95.5 -24.5t-71.5 -67.5q-7 -11 -4.5 -24t14 -20t24 -4t20.5 14q18 29 48 45.5t65 16.5t65 -16.5t48 -45.5q10 -15 27 -15q9 0 17 5q12 7 14.5 20t-4.5 24q-27 43 -71.5 67.5t-95.5 24.5zM512 768q-159 0 -271.5 -112.5
t-112.5 -271.5t112.5 -271.5t271.5 -112.5t271.5 112.5t112.5 271.5t-112.5 271.5t-271.5 112.5zM512 64q-132 0 -226 94t-94 226t94 226t226 94t226 -94t94 -226t-94 -226t-226 -94z" />
    <glyph glyph-name="asmkticon0233" unicode="&#xe7fc;" 
d="M397 461zM346 461q0 21 15 36t36 15t36 -15t15 -36t-15 -36t-36 -15t-36 15t-15 36zM627 461zM576 461q0 21 15 36t36 15t36 -15t15 -36t-15 -36t-36 -15t-36 15t-15 36zM512 755q-101 0 -186.5 -49.5t-135 -135t-49.5 -186.5t49.5 -186.5t135 -135t186.5 -49.5
t186.5 49.5t135 135t49.5 186.5t-49.5 186.5t-135 135t-186.5 49.5zM512 51q-90 0 -167 44.5t-121.5 121.5t-44.5 167t44.5 167t121.5 121.5t167 44.5t167 -44.5t121.5 -121.5t44.5 -167t-44.5 -167t-121.5 -121.5t-167 -44.5zM640 275h-256q-8 0 -13.5 -5.5t-5.5 -13.5
t5.5 -13.5t13.5 -5.5h256q8 0 13.5 5.5t5.5 13.5t-5.5 13.5t-13.5 5.5z" />
    <glyph glyph-name="shachenyujing" unicode="&#xe631;" 
d="M42 495q-14 0 -24 -10t-10 -24t10 -24t24.5 -10t24.5 10t10 24t-10 24t-25 10v0v0zM42 479q8 0 13.5 -5t5.5 -13t-5.5 -13.5t-13.5 -5.5t-13.5 5.5t-5.5 13.5t5.5 13t13.5 5v0v0zM105 340q-14 0 -24.5 -10t-10.5 -24t10.5 -24t24.5 -10t24.5 10t10.5 24t-10.5 24
t-24.5 10v0v0zM105 324q8 0 13.5 -5t5.5 -13t-5.5 -13.5t-13.5 -5.5t-13.5 5.5t-5.5 13.5t5.5 13t13.5 5v0v0zM221 576q15 0 25 10t10 24.5t-10 24.5t-24.5 10t-24.5 -10t-10 -24.5t10 -24.5t24 -10v0v0zM221 592q-8 0 -13.5 5.5t-5.5 13t5.5 13t13.5 5.5t13.5 -5.5t5.5 -13
t-5.5 -13t-13.5 -5.5v0v0zM437 610q0 -14 10 -24t24.5 -10t24.5 10t10 24.5t-10 24.5t-24.5 10t-24.5 -10t-10 -25v0v0zM453 610q0 8 5.5 13.5t13.5 5.5t13.5 -5.5t5.5 -13t-5.5 -13t-13.5 -5.5t-13.5 5.5t-5.5 12.5v0v0zM202 461q0 14 -10 24t-24.5 10t-24.5 -10t-10 -24
t10 -24t24.5 -10t24.5 10t10 24v0v0zM187 461q0 -8 -6 -13.5t-13.5 -5.5t-13 5.5t-5.5 13.5t5.5 13t13 5t13.5 -5t6 -13v0v0zM312 610q0 -14 10 -24t24.5 -10t24.5 10t10 24.5t-10 24.5t-24.5 10t-24.5 -10t-10 -25v0v0zM327 610q0 8 6 13.5t13.5 5.5t13.5 -5.5t6 -13
t-6 -13t-13.5 -5.5t-13.5 5.5t-6 12.5v0v0zM562 610q0 -14 10.5 -24t24.5 -10t24.5 10t10.5 24.5t-10.5 24.5t-24.5 10t-24.5 -10t-10.5 -25v0v0zM578 610q0 8 5.5 13.5t13.5 5.5t13.5 -5.5t5.5 -13t-5.5 -13t-13.5 -5.5t-13.5 5.5t-5.5 12.5v0v0zM785 427q51 0 87.5 35.5
t36.5 86t-36.5 86.5t-87.5 36q-49 0 -85 -33l-6 -5l6 -6l1 -1l5 6l-4 6q-14 -10 -14 -28q0 -14 10 -24t24 -10q19 0 29 15l-1 -1q15 13 35 13q23 0 39 -16t16 -38q0 -20 -13.5 -35.5t-33.5 -17.5l-7 -1v-7v-1h8v8h-403h-107h-8v-8v-1h8l-3 7q-23 -8 -23 -32t23 -32l3 7h-8
v-2v-7h8h492h1h5h3v0v0zM785 442h-3h-7v0h-491v-8h8v2v6l-6 1q-12 5 -12 18t12 17l6 2v6v1h-8v-8h107h403h8v8v1h-8l1 -8q26 4 43 23.5t17 45.5q0 29 -20.5 49t-49.5 20q-26 0 -45 -16l-2 -2q-6 -8 -16 -8q-8 0 -13.5 5.5t-5.5 12.5q0 10 8 15l7 6l-6 6l-1 1l-6 -6l6 -5
q31 29 74 29q45 0 76.5 -31.5t31.5 -75.5t-31.5 -75.5t-76.5 -31.5v0v0zM454 182q-14 0 -24.5 -10t-10.5 -24.5t10.5 -24.5t24.5 -10t24.5 10t10.5 24.5t-10.5 24.5t-24.5 10v0v0zM454 166q8 0 13.5 -5.5t5.5 -13t-5.5 -13t-13.5 -5.5t-13.5 5.5t-5.5 13t5.5 13t13.5 5.5v0
v0zM704 182q-14 0 -24 -10t-10 -24.5t10 -24.5t24.5 -10t24.5 10t10 24.5t-10 24.5t-25 10v0v0zM704 166q8 0 13.5 -5.5t5.5 -13t-5.5 -13t-13.5 -5.5t-13.5 5.5t-5.5 13t5.5 13t13.5 5.5v0v0zM579 182q-14 0 -24 -10t-10 -24.5t10 -24.5t24 -10t24.5 10t10.5 24.5
t-10.5 24.5t-24.5 10v0v0zM579 166q8 0 13.5 -5.5t5.5 -13t-5.5 -13t-13.5 -5.5t-13.5 5.5t-5.5 13t5.5 13t13.5 5.5v0v0zM203 182q-14 0 -24 -10t-10 -24.5t10 -24.5t24.5 -10t24.5 10t10 24.5t-10 24.5t-25 10v0v0zM203 166q8 0 14 -5.5t6 -13t-6 -13t-14 -5.5t-13.5 5.5
t-5.5 13t5.5 13t13.5 5.5v0v0zM883 340h-393h-8v-8v-1h8l2 7q-6 2 -11 2q-15 0 -25 -10t-10 -24t10 -24t25 -10q5 0 11 2l-2 7h-8v-1v-8h8h9h402v8h-8v-1v-7l7 -1q20 -3 33.5 -18t13.5 -35q0 -22 -16 -38t-39 -16q-20 0 -35 13l1 -2q-10 15 -28 15q-15 0 -25 -10t-10 -24
q0 -18 15 -28l4 7l-5 5l-1 -1l-6 -5l6 -6q36 -32 84 -32q52 0 88 35.5t36 86t-36 86.5t-88 36h-9v0v0v0v0zM884 324v0v0h8q45 0 77 -31t32 -75t-32 -75.5t-77 -31.5q-42 0 -73 28l-5 -5l5 -6l1 1l7 7l-8 5q-8 6 -8 15q0 8 5.5 13.5t13.5 5.5q10 0 16 -9l1 -1q20 -16 45 -16
q29 0 50 20t21 49q0 26 -17.5 45.5t-43.5 22.5l-1 -7h8v1v7h-8h-402h-9v-7h7v1v11l-10 -4q-3 -1 -6 -1q-8 0 -13.5 5.5t-5.5 13.5t5.5 13t13.5 5q3 0 6 -1l10 -3v11v1h-7v-8h393h1v0zM230 340q-14 0 -24 -10t-10 -24t10 -24t24.5 -10t24.5 10t10 24t-10 24t-25 10v0v0z
M230 324q8 0 13.5 -5t5.5 -13t-5.5 -13.5t-13.5 -5.5t-13.5 5.5t-5.5 13.5t5.5 13t13.5 5v0v0zM356 340q-15 0 -25 -10t-10 -24t10 -24t24.5 -10t24.5 10t10 24t-10 24t-24 10v0v0zM356 324q7 0 13 -5t6 -13t-6 -13.5t-13.5 -5.5t-13.5 5.5t-6 13.5t6 13t14 5v0v0zM329 182
q-15 0 -25 -10t-10 -24.5t10 -24.5t24.5 -10t24.5 10t10 24.5t-10 24.5t-24 10v0v0zM42 487q-11 0 -18.5 -7.5t-7.5 -18.5t7.5 -19t18.5 -8t19 8t8 19t-8 18.5t-19 7.5v0zM105 332q-11 0 -19 -7.5t-8 -18.5t8 -18.5t19 -7.5t19 7.5t8 18.5t-8 18.5t-19 7.5v0zM221 584
q11 0 19 8t8 18.5t-8 18.5t-19 8t-19 -8t-8 -18.5t8 -18.5t19 -8v0zM445 610q0 -10 8 -18t19 -8t18.5 8t7.5 18.5t-7.5 18.5t-18.5 8t-19 -8t-8 -19v0zM194 461q0 11 -7.5 18.5t-19 7.5t-19 -7.5t-7.5 -18.5t7.5 -19t19 -8t19 8t7.5 19v0zM320 610q0 -10 7.5 -18t19 -8t19 8
t7.5 18.5t-7.5 18.5t-19 8t-19 -8t-7.5 -19v0zM570 610q0 -10 8 -18t19 -8t19 8t8 18.5t-8 18.5t-19 8t-19 -8t-8 -19v0zM901 549q0 47 -34 80.5t-82 33.5q-46 0 -80 -31h1q-11 -8 -11 -22q0 -10 8 -18t19 -8q15 0 23 12q17 14 40 14q26 0 44.5 -18t18.5 -43
q0 -23 -15.5 -40.5t-38.5 -20.5v-1h-403h-107v-1q-18 -7 -18 -25.5t18 -24.5v-2h492h9q48 0 82 34t34 81v0zM454 174q-11 0 -19 -8t-8 -18.5t8 -18.5t19 -8t19 8t8 18.5t-8 18.5t-19 8v0zM704 174q-11 0 -18.5 -8t-7.5 -18.5t7.5 -18.5t18.5 -8t19 8t8 18.5t-8 18.5t-19 8v0
zM579 174q-11 0 -19 -8t-8 -18.5t8 -18.5t19 -8t19 8t8 18.5t-8 18.5t-19 8v0zM203 174q-11 0 -19 -8t-8 -18.5t8 -18.5t19.5 -8t19 8t7.5 18.5t-7.5 18.5t-19.5 8v0zM883 332h-393v-1q-5 1 -9 1q-11 0 -19 -7.5t-8 -18.5t8 -18.5t19 -7.5q4 0 9 1v-1h9h402v-1
q23 -3 38.5 -20.5t15.5 -40.5q0 -26 -18.5 -44t-44.5 -18q-23 0 -40 15q-8 12 -22 12q-11 0 -19 -8t-8 -19q0 -14 11 -21v-1q33 -31 78 -31q48 0 82 33.5t34 81t-34 81t-82 33.5h-9v0zM230 332q-11 0 -19 -7.5t-8 -18.5t8 -18.5t19 -7.5t19 7.5t8 18.5t-8 18.5t-19 7.5v0z
M356 332q-12 0 -19.5 -7.5t-7.5 -18.5t7.5 -18.5t19 -7.5t19 7.5t7.5 18.5t-7.5 18.5t-18.5 7.5v0zM329 174q-12 0 -19.5 -8t-7.5 -18.5t7.5 -18.5t19 -8t19.5 8t8 18.5t-8 18.5t-19 8v0z" />
    <glyph glyph-name="yu" unicode="&#xe63a;" 
d="M912 473q-36 37 -86 47q-8 90 -73 155q-73 73 -177 73q-70 0 -129 -35.5t-92 -95.5q-26 15 -56 15q-49 0 -83.5 -34t-35.5 -82q-44 -15 -74 -49q-41 -47 -41 -110q0 -69 49 -117.5t118 -48.5h561q68 0 117 48q49 49 49 118q0 68 -47 116zM867 283q-31 -31 -74 -31h-561
q-44 0 -75 31t-31 74q0 39 26 69t65 35q13 2 21 13.5t5 24.5q-2 7 -2 14q0 24 17 40.5t41 16.5q27 0 44 -21q12 -14 29.5 -11t23.5 21q20 57 69.5 92.5t110.5 35.5q78 0 133.5 -56t55.5 -134v-3v-1q0 -13 9 -22t21 -9q43 -1 73 -31.5t30 -73.5t-31 -74zM635 150l-78 -78
q-9 -9 -9 -21.5t9 -21.5t22 -9t22 9l77 77q9 9 9 22t-9 22t-21.5 9t-21.5 -9zM544 164q-9 9 -22 9t-22 -9l-91 -92q-9 -9 -9 -21.5t9 -21.5t21.5 -9t21.5 9l92 92q9 9 9 21.5t-9 21.5zM395 150q-9 9 -21.5 9t-21.5 -9l-78 -78q-9 -9 -9 -21.5t9 -21.5t22 -9t22 9l77 77
q9 9 9 22t-9 22z" />
    <glyph glyph-name="xue" unicode="&#xe63c;" 
d="M905 192l-121 70l111 35q12 4 18 15.5t2.5 23.5t-15 18t-23.5 2l-166 -52l-138 80l136 78l168 -53q4 -1 9 -1q23 0 29 21q4 12 -2 23.5t-18 15.5l-114 35l123 72q11 6 14.5 18.5t-3 23.5t-18.5 14t-23 -3l-122 -70l25 114q3 12 -3.5 23t-19 13.5t-23.5 -4t-13 -19.5
l-38 -169l-138 -80v156l129 119q10 9 10.5 21.5t-8 22t-21.5 10t-22 -8.5l-88 -81v128q0 13 -9 22t-22 9t-22 -9t-9 -22v-126l-86 79q-9 9 -22 8.5t-21.5 -10t-8 -22t10.5 -21.5l127 -118v-156l-135 79l-38 169q-3 12 -13.5 19t-23 4t-19.5 -13.5t-4 -23.5l26 -114l-123 71
q-11 6 -23 3t-18.5 -14t-3 -23.5t14.5 -18.5l124 -72l-115 -36q-12 -3 -18 -14.5t-2 -23.5q7 -22 30 -22q4 0 9 2l168 52l135 -77l-138 -80l-165 52q-12 4 -23.5 -2t-15.5 -18t2 -23.5t18 -14.5l112 -35l-122 -71q-11 -6 -14.5 -18.5t2.5 -23.5q9 -15 27 -15q8 0 15 4
l124 72l-26 -117q-3 -13 4 -23.5t19 -13.5q4 -1 7 -1q11 0 19.5 7t10.5 17l39 172l134 78v-159l-127 -118q-10 -8 -10.5 -21t8.5 -22q9 -10 22 -10q12 0 21 8l86 79v-122q0 -13 9 -22t22 -9t22 9t9 22v124l88 -81q9 -9 22 -8.5t21.5 10t8 22.5t-10.5 21l-129 119v159
l137 -79l39 -172q2 -11 10.5 -17.5t18.5 -6.5q4 0 7 1q13 2 19.5 13t3.5 23l-26 117l124 -71q7 -4 15 -4q18 0 27 15q6 11 2.5 23.5t-14.5 18.5z" />
    <glyph glyph-name="gaoxing" unicode="&#xe632;" 
d="M512 758q-98 0 -180.5 -47.5t-130 -130t-47.5 -180.5t47.5 -180.5t130 -130t180.5 -47.5t180.5 47.5t130 130t47.5 180.5t-47.5 180.5t-130 130t-180.5 47.5zM512 106q-122 0 -208 86t-86 208t86 208t208 86t208 -86t86 -208t-86 -208t-208 -86zM374 502zM317 502.5
q0 23.5 17 40.5t40.5 17t40.5 -17t17 -40.5t-17 -40.5t-40.5 -17t-40.5 17t-17 40.5zM653 502zM595 502.5q0 23.5 17 40.5t41 17t40.5 -17t16.5 -40.5t-16.5 -40.5t-40.5 -17t-41 17t-17 40.5zM653 390q-15 0 -23.5 -8.5t-8.5 -23.5q0 -40 -31.5 -69.5t-74.5 -29.5t-74 29.5
t-31 69.5q0 15 -9 23.5t-23.5 8.5t-23 -8.5t-8.5 -23.5q0 -67 50 -115t119.5 -48t119.5 48t50 115q0 13 -9 22.5t-23 9.5z" />
    <glyph glyph-name="shu" unicode="&#xe648;" 
d="M932 555q10 25 10 51q0 55 -36.5 95t-90.5 46q-16 41 -52 67t-81 26q-39 0 -73 -21q-3 5 -6 9l-1 3q-1 0 -5 6l-2 2l-4.5 6t-2.5 2q-3 4 -6 7h-1q-8 8 -17 14v0l-10 6v0q-5 3 -10 5v0v0q-28 13 -59 13q-53 0 -92.5 -34t-47.5 -85q-10 1 -18 1q-58 0 -99.5 -41.5
t-41.5 -100.5v-11q-30 -20 -48 -51.5t-18 -68.5q0 -68 53 -111q-1 -5 -1 -7q0 -59 42 -100.5t100 -41.5q31 0 59 13q47 -33 114 -42v-340h95v342q35 6 65 20q13 -11 28 -20q28 -13 59 -13q55 0 95.5 37t45.5 90q39 15 64 48t29 74v12q0 53 -36 93z" />
    <glyph glyph-name="21wu" unicode="&#xe6f2;" 
d="M225 582h590v-80h-590v80zM225 280h590v80h-590v-80zM225 58h590v80h-590v-80z" />
    <glyph glyph-name="kulian" unicode="&#xe60d;" horiz-adv-x="1026" 
d="M505 256q35 0 66.5 -12t50.5 -27.5t35 -35t21 -28.5t7 -15l-42 -19q-2 5 -5.5 11.5t-16 22t-27 27t-38.5 21t-51 9.5q-29 0 -54.5 -10t-40.5 -21.5t-27.5 -26.5t-16 -21.5t-5.5 -11.5l-43 19q3 6 8 14.5t21 28.5t35 35t51.5 27.5t68.5 12.5h3zM502 -28q-104 0 -192.5 51
t-140 139.5t-51.5 193t51.5 193t140 140t192.5 51.5t192.5 -51.5t140 -140t51.5 -193t-51.5 -193t-140 -139.5t-192.5 -51zM502.5 683q-88.5 0 -164 -44t-119.5 -119.5t-44 -164t44 -164t119.5 -119.5t164 -44t164 44t119 119.5t43.5 164t-43.5 164t-119 119.5t-164 44z
M346 422q0 -18 13 -31t31.5 -13t31.5 13t13 31.5t-13 31.5t-31 13v0q-19 0 -32 -13t-13 -32v0zM569 422q0 -18 13 -31t31 -13t31 13t13 31.5t-13 31.5t-31 13v0q-18 0 -31 -13t-13 -32v0z" />
  </font>
</defs>
</svg>
