<?xml version="1.0" standalone="no"?><!DOCTYPE svg PUBLIC "-//W3C//DTD SVG 1.1//EN" "http://www.w3.org/Graphics/SVG/1.1/DTD/svg11.dtd"><svg t="1481342549780" class="icon" style="" viewBox="0 0 1025 1024" version="1.1" xmlns="http://www.w3.org/2000/svg" p-id="1135" xmlns:xlink="http://www.w3.org/1999/xlink" width="200.1953125" height="200"><defs><style type="text/css"></style></defs><path d="M843.769 478.107c-9.124-53.24-37.798-99.623-80.721-130.609-42.943-31-95.007-42.855-146.577-33.451-38.743 7.085-73.565 25.361-101.558 53.155-15.416-4.068-31.561-6.235-48.188-6.235-66.17 0-127.366 34.916-162.96 91.043-20.913-13.301-45.035-20.408-70.183-20.408-73.938 0-134.107 62.093-134.107 138.411 0 6.661 0.446 13.267 1.346 19.777-60.374 24.848-100.82 85.152-100.82 154.092 0 90.209 69.145 158.242 160.833 158.242l442.881 0c88.678 0 160.841-74.462 160.841-165.986 0-18.063-2.91-35.634-8.294-52.172C822.103 640.435 857.626 558.927 843.769 478.107zM603.714 852.935 160.833 852.935c-64.522 0-113.175-46.881-113.175-109.054 0-54.371 35.73-101.096 86.878-113.628 6.517-1.602 12.089-5.957 15.332-12.011 3.258-6.042 3.874-13.225 1.731-19.784-2.958-9.085-4.467-18.65-4.467-28.445 0-49.195 38.783-89.224 86.449-89.224 22.895 0 44.494 9.151 60.811 25.777 5.54 5.654 13.42 8.093 21.069 6.686 7.663-1.465 14.147-6.698 17.38-14.015 23.778-54.122 76.34-89.082 133.883-89.082 81.031 0 146.952 68.033 146.952 151.656 0 7.661-1.999 23.671-3.353 32.568-1.938 12.801 6.071 24.961 18.324 27.804 51.131 11.84 88.241 59.762 88.241 113.955C716.889 800.534 666.119 852.935 603.714 852.935zM734.425 639.905c-18.344-26.498-44.053-47.464-74.299-59.225 0.685-6.544 1.209-13.411 1.209-18.87 0-73.903-38.882-138.6-96.638-173.475 17.734-13.028 38.07-21.824 60.083-25.849 39.039-7.147 78.456 1.858 110.949 25.314 32.497 23.456 54.191 58.57 61.11 98.882C807.049 546.287 781.809 606.385 734.425 639.905zM658.115 240.124l0.163 0c13.155-0.088 23.751-11.17 23.673-24.746l-0.419-69.059c-0.076-13.53-10.736-24.441-23.829-24.441l-0.154 0c-13.162 0.088-23.751 11.167-23.673 24.746l0.41 69.054C634.364 229.213 645.022 240.124 658.115 240.124zM1000.17 512.001l-0.163 0-66.926 0.439c-13.155 0.09-23.751 11.17-23.673 24.756 0.076 13.53 10.736 24.434 23.827 24.434l0.156 0 66.933-0.439c13.152-0.09 23.751-11.17 23.676-24.756C1023.921 522.908 1013.264 512.001 1000.17 512.001zM864.322 328.116c6.147 0 12.289-2.443 16.961-7.312l47.025-49.139c9.241-9.663 9.148-25.241-0.224-34.784-9.339-9.536-24.412-9.439-33.69 0.219l-47.022 49.136c-9.253 9.665-9.161 25.243 0.212 34.787C852.223 325.756 858.275 328.116 864.322 328.116zM404.002 320.802c4.655 4.872 10.811 7.315 16.961 7.315 6.044 0 12.099-2.36 16.736-7.093 9.373-9.543 9.458-25.114 0.215-34.78l-47.005-49.136c-9.244-9.675-24.361-9.763-33.699-0.227-9.373 9.543-9.465 25.114-0.215 34.78L404.002 320.802zM855.061 723.88c-9.278-9.66-24.361-9.758-33.699-0.217-9.37 9.546-9.458 25.126-0.215 34.787l47.025 49.141c4.672 4.869 10.814 7.307 16.951 7.307 6.054 0 12.108-2.36 16.746-7.093 9.373-9.541 9.46-25.122 0.215-34.784L855.061 723.88z" p-id="1136"></path></svg>