<?xml version="1.0" standalone="no"?><!DOCTYPE svg PUBLIC "-//W3C//DTD SVG 1.1//EN" "http://www.w3.org/Graphics/SVG/1.1/DTD/svg11.dtd"><svg t="1481337270916" class="icon" style="" viewBox="0 0 1024 1024" version="1.1" xmlns="http://www.w3.org/2000/svg" p-id="611" xmlns:xlink="http://www.w3.org/1999/xlink" width="200" height="200"><defs><style type="text/css"></style></defs><path d="M533.532 271.523c-132.601 0-240.479 107.878-240.479 240.479 0 132.601 107.878 240.479 240.479 240.479s240.479-107.879 240.479-240.479C774.012 379.401 666.133 271.523 533.532 271.523zM533.532 694.226c-100.479 0-182.224-81.745-182.224-182.224 0-100.479 81.745-182.224 182.224-182.224 100.479 0 182.223 81.745 182.223 182.224C715.755 612.48 634.011 694.226 533.532 694.226z" p-id="612" fill="#515151"></path><path d="M533.532 233.708c16.086 0 29.128-13.041 29.128-29.128L562.66 89.3c0-16.088-13.042-29.128-29.128-29.128s-29.127 13.04-29.127 29.128l0 115.281C504.405 220.668 517.446 233.708 533.532 233.708z" p-id="613" fill="#515151"></path><path d="M533.532 790.295c-16.086 0-29.127 13.041-29.127 29.128L504.405 934.7c0 16.088 13.042 29.128 29.127 29.128s29.128-13.04 29.128-29.128L562.66 819.423C562.66 803.336 549.618 790.295 533.532 790.295z" p-id="614" fill="#515151"></path><path d="M956.238 482.874 840.95 482.874c-16.086 0-29.128 13.04-29.128 29.128s13.042 29.128 29.128 29.128l115.288 0c16.085 0 29.128-13.04 29.128-29.128S972.323 482.874 956.238 482.874z" p-id="615" fill="#515151"></path><path d="M255.239 512.002c0-16.088-13.041-29.128-29.128-29.128L110.828 482.874c-16.087 0-29.127 13.04-29.127 29.128s13.041 29.128 29.127 29.128l115.283 0C242.199 541.13 255.239 528.09 255.239 512.002z" p-id="616" fill="#515151"></path><path d="M751.75 322.913c7.455 0 14.908-2.845 20.597-8.532l81.518-81.52c11.374-11.377 11.374-29.818-0.004-41.192-11.371-11.378-29.813-11.375-41.192 0l-81.517 81.52c-11.374 11.376-11.374 29.818 0.003 41.192C736.84 320.07 744.293 322.913 751.75 322.913z" p-id="617" fill="#515151"></path><path d="M296.392 707.945l-81.515 81.52c-11.375 11.377-11.373 29.817 0.002 41.194 5.688 5.688 13.142 8.529 20.596 8.529 7.454 0 14.91-2.845 20.596-8.532l81.516-81.521c11.375-11.376 11.375-29.817-0.003-41.193C326.213 696.568 307.77 696.57 296.392 707.945z" p-id="618" fill="#515151"></path><path d="M772.347 707.945c-11.378-11.375-29.817-11.375-41.195 0-11.374 11.373-11.374 29.817 0 41.19l81.517 81.518c5.689 5.688 13.143 8.531 20.598 8.531 7.457 0 14.91-2.844 20.599-8.531 11.374-11.374 11.374-29.817 0-41.192L772.347 707.945z" p-id="619" fill="#515151"></path><path d="M296.392 314.381c5.689 5.689 13.142 8.532 20.599 8.532 7.452 0 14.909-2.845 20.597-8.532 11.375-11.374 11.375-29.818 0-41.192l-81.516-81.517c-11.37-11.375-29.813-11.375-41.192 0-11.376 11.375-11.376 29.818 0 41.192L296.392 314.381z" p-id="620" fill="#515151"></path></svg>