<?xml version="1.0" standalone="no"?><!DOCTYPE svg PUBLIC "-//W3C//DTD SVG 1.1//EN" "http://www.w3.org/Graphics/SVG/1.1/DTD/svg11.dtd"><svg t="1481342600038" class="icon" style="" viewBox="0 0 1024 1024" version="1.1" xmlns="http://www.w3.org/2000/svg" p-id="1259" xmlns:xlink="http://www.w3.org/1999/xlink" width="200" height="200"><defs><style type="text/css"></style></defs><path d="M288.973 704.99c-140.493 0-254.839-86.63-254.839-192.99s114.347-192.922 254.839-192.922 254.908 86.494 254.908 192.922-114.347 192.99-254.908 192.99zM288.973 382.703c-103.629 0-191.147 59.187-191.147 129.229s87.518 129.297 191.147 129.297 191.147-59.255 191.147-129.297-87.518-129.229-191.147-129.229z" p-id="1260"></path><path d="M735.027 704.99c-140.561 0-254.839-86.63-254.839-192.99s114.347-192.922 254.839-192.922 254.839 86.494 254.839 192.922-114.347 192.99-254.839 192.99zM735.027 382.703c-103.629 0-191.147 59.187-191.147 129.229s87.518 129.297 191.147 129.297 191.147-59.255 191.147-129.297-87.586-129.229-191.147-129.229z" p-id="1261"></path></svg>