<?xml version="1.0" standalone="no"?><!DOCTYPE svg PUBLIC "-//W3C//DTD SVG 1.1//EN" "http://www.w3.org/Graphics/SVG/1.1/DTD/svg11.dtd"><svg t="1481342629284" class="icon" style="" viewBox="0 0 1024 1024" version="1.1" xmlns="http://www.w3.org/2000/svg" p-id="1384" xmlns:xlink="http://www.w3.org/1999/xlink" width="200" height="200"><defs><style type="text/css"></style></defs><path d="M270.870686 747.636718l378.721531-5.4225c60.908208-13.82589 106.379842-68.293409 106.379842-133.38387 0-75.532277-61.23669-136.768967-136.780223-136.768967-3.081175 0-6.127558 0.106424-9.154497 0.303922l-46.240137 0.474814c-16.310477-18.739806-27.425629-28.375258-38.09155-40.380686-32.048927-38.922475-80.608899-63.74379-134.966924-63.74379-89.771583 0-163.719782 67.687612-173.620269 154.814971-1.022283 14.213723-2.28095 23.831778-3.27151 33.118282l-53.216016-0.013303c-3.1262-0.316202-6.299473-0.473791-9.504468-0.473791-52.603055 0-95.232968 42.642193-95.232968 95.238085 0 49.166793 37.267788 89.6406 85.102237 94.705965l0 1.529843L270.870686 747.635695 270.870686 747.636718zM817.921993 590.361719c-9.326413-101.57235-94.719268-181.120081-198.730157-181.120081-13.158694 0-26.01449 1.293459-38.460963 3.719718-14.287401-20.757766-31.886221-39.054481-52.036143-54.140061l2.651386 2.01796c22.709211-50.960649 73.783447-86.479607 133.173069-86.479607 45.334511 0 85.833901 20.698414 112.559589 53.156664 8.891508 10.005888 18.152429 18.047028 31.767518 33.680077l38.561247-0.396019c2.518357-0.171915 5.065366-0.264013 7.636934-0.264013 62.992683 0 114.058732 51.072189 114.058732 114.071012 0 54.278207-37.914518 99.704816-88.703251 111.24157L817.921993 590.361719 817.921993 590.361719zM491.558947 336.158133c31.165814-64.0999 96.900957-108.280122 172.960237-108.280122 65.75561 0 123.787304 33.020044 158.442592 83.380012 10.382465-2.025123 21.107737-3.100618 32.082696-3.100618 91.921549 0 166.457126 74.514087 166.457126 166.449963 0 91.928712-74.535577 166.450986-166.457126 166.450986-12.135388 0-25.077142-0.039909-38.863123-0.079818-15.369036 94.942349-97.701183 167.446663-196.989513 167.446663-80.69588 0-190.274578-1.028423-342.984608-1.662873l-125.07974-0.342808c-79.44847-0.224104-143.865595-75.564-143.865595-155.018609 0-79.461773 64.409962-143.864572 143.865595-143.864572 3.989871 0 7.934716 0.170892 11.83249 0.488117 17.050328-110.469997 112.541169-195.043185 227.779773-195.043185C426.898275 312.980247 461.111494 321.30996 491.558947 336.158133z" p-id="1385"></path></svg>