<?xml version="1.0" standalone="no"?><!DOCTYPE svg PUBLIC "-//W3C//DTD SVG 1.1//EN" "http://www.w3.org/Graphics/SVG/1.1/DTD/svg11.dtd"><svg t="1481342494655" class="icon" style="" viewBox="0 0 1024 1024" version="1.1" xmlns="http://www.w3.org/2000/svg" p-id="1011" xmlns:xlink="http://www.w3.org/1999/xlink" width="200" height="200"><defs><style type="text/css"></style></defs><path d="M42.337978 401.052548C23.271191 401.052548 7.757576 416.291949 7.757576 435.158854 7.757576 454.025759 23.271191 469.265175 42.337978 469.265175 61.404781 469.265175 76.918396 454.025759 76.918396 435.158854 76.918396 416.291949 61.404781 401.052548 42.337978 401.052548L42.337978 401.052548 42.337978 401.052548ZM42.337978 416.567699C52.897327 416.567699 61.403245 424.92326 61.403245 435.158854 61.403245 445.394448 52.897327 453.750024 42.337978 453.750024 31.778645 453.750024 23.272727 445.394448 23.272727 435.158854 23.272727 424.92326 31.778645 416.567699 42.337978 416.567699L42.337978 416.567699 42.337978 416.567699ZM104.95547 556.033365C85.840291 556.033365 70.282442 571.265365 70.282442 590.139687 70.282442 609.012193 85.844604 624.245993 104.95547 624.245993 124.066351 624.245993 139.628497 609.012193 139.628497 590.139687 139.628497 571.265365 124.070648 556.033365 104.95547 556.033365L104.95547 556.033365 104.95547 556.033365ZM104.95547 571.548517C115.57452 571.548517 124.113346 579.908515 124.113346 590.139687 124.113346 600.368485 115.57075 608.730841 104.95547 608.730841 94.340205 608.730841 85.797593 600.368485 85.797593 590.139687 85.797593 579.908515 94.336419 571.548517 104.95547 571.548517L104.95547 571.548517 104.95547 571.548517ZM221.212455 319.706965C240.284594 319.706965 255.792857 304.41953 255.792857 285.509663 255.792857 266.599812 240.284594 251.312376 221.212455 251.312376 202.1403 251.312376 186.632037 266.599812 186.632037 285.509663 186.632037 304.423781 202.138438 319.706965 221.212455 319.706965L221.212455 319.706965 221.212455 319.706965ZM221.212455 304.191814C210.657264 304.191814 202.147188 295.80423 202.147188 285.509663 202.147188 275.218789 210.659669 266.827528 221.212455 266.827528 231.765225 266.827528 240.277706 275.218789 240.277706 285.509663 240.277706 295.800537 231.765225 304.191814 221.212455 304.191814L221.212455 304.191814 221.212455 304.191814ZM437.095812 285.509663C437.095812 304.423781 452.602213 319.706965 471.676214 319.706965 490.748369 319.706965 506.256632 304.41953 506.256632 285.509663 506.256632 266.599812 490.748369 251.312376 471.676214 251.312376 452.604059 251.312376 437.095812 266.599812 437.095812 285.509663L437.095812 285.509663 437.095812 285.509663ZM452.610963 285.509663C452.610963 275.218789 461.123429 266.827528 471.676214 266.827528 482.229 266.827528 490.741481 275.218789 490.741481 285.509663 490.741481 295.800537 482.229 304.191814 471.676214 304.191814 461.12104 304.191814 452.610963 295.80423 452.610963 285.509663L452.610963 285.509663 452.610963 285.509663ZM202.147188 435.158854C202.147188 416.291949 186.633588 401.052548 167.566786 401.052548 148.499984 401.052548 132.986368 416.291949 132.986368 435.158854 132.986368 454.025759 148.499984 469.265175 167.566786 469.265175 186.637902 469.265175 202.147188 454.027574 202.147188 435.158854L202.147188 435.158854 202.147188 435.158854ZM186.632037 435.158854C186.632037 445.396821 178.129889 453.750024 167.566786 453.750024 157.007438 453.750024 148.50152 445.394448 148.50152 435.158854 148.50152 424.92326 157.007438 416.567699 167.566786 416.567699 178.126119 416.567699 186.632037 424.92326 186.632037 435.158854L186.632037 435.158854 186.632037 435.158854ZM311.867004 285.509663C311.867004 304.423781 327.373421 319.706965 346.447422 319.706965 365.519577 319.706965 381.027824 304.41953 381.027824 285.509663 381.027824 266.599812 365.519577 251.312376 346.447422 251.312376 327.370954 251.312376 311.867004 266.597981 311.867004 285.509663L311.867004 285.509663 311.867004 285.509663ZM327.382156 285.509663C327.382156 275.216415 335.890866 266.827528 346.447422 266.827528 357.000208 266.827528 365.512673 275.218789 365.512673 285.509663 365.512673 295.800537 357.000208 304.191814 346.447422 304.191814 335.892247 304.191814 327.382156 295.80423 327.382156 285.509663L327.382156 285.509663 327.382156 285.509663ZM562.324604 285.509663C562.324604 304.429351 577.879568 319.706965 596.997632 319.706965 616.113835 319.706965 631.67066 304.4251 631.67066 285.509663 631.67066 266.594226 616.113835 251.312376 596.997632 251.312376 577.881429 251.312376 562.324604 266.594226 562.324604 285.509663L562.324604 285.509663 562.324604 285.509663ZM577.839756 285.509663C577.839756 275.225553 586.388899 266.827528 596.997632 266.827528 607.606365 266.827528 616.155508 275.225553 616.155508 285.509663 616.155508 295.793773 607.606365 304.191814 596.997632 304.191814 586.386494 304.191814 577.839756 295.797465 577.839756 285.509663L577.839756 285.509663 577.839756 285.509663ZM784.850091 469.265175C853.364534 469.265175 908.963437 414.60494 908.963437 347.117428 908.963437 279.625883 853.366613 224.969697 784.850091 224.969697 753.039127 224.969697 723.104411 236.891446 700.223379 257.933234L694.215742 263.457947 700.038206 269.177499 700.785338 269.911428 706.221646 264.377297 701.637089 258.119354C692.870718 264.541572 687.565746 274.576943 687.565746 285.521796 687.565746 304.441484 703.120725 319.719098 722.238774 319.719098 733.882896 319.719098 744.56891 314.003611 750.977707 304.652784L749.545084 306.226672C759.452486 297.970471 771.833391 293.370352 784.948891 293.370352 815.272479 293.370352 839.808791 317.50746 839.808791 347.214476 839.808791 374.052243 819.62918 396.688446 792.735573 400.447907L786.051987 401.382198 786.051987 408.130777 786.051987 408.870772 793.809563 408.870772 793.809563 401.113197 391.232419 401.113197 283.926497 401.058614 276.16498 401.054658 276.16498 408.816175 276.16498 410.411427 283.922556 410.411427 281.385627 403.080394C267.638846 407.83751 258.221351 420.570872 258.221351 435.16492 258.221351 449.756176 267.641872 462.490562 281.384293 467.248981L283.922556 459.918414 276.16498 459.918414 276.16498 461.51365 276.16498 469.271226 283.922556 469.271226 775.970894 469.271226 776.57752 469.247472C777.86202 469.146748 778.987985 469.145988 781.700174 469.213758 783.205872 469.251522 783.937427 469.265175 784.850091 469.265175L784.850091 469.265175 784.850091 469.265175ZM784.850091 453.750024C784.108963 453.750024 783.526943 453.739163 782.087773 453.703447 778.840452 453.622303 777.360337 453.623312 775.364592 453.779813L775.364422 453.779828 283.922556 453.756075 283.922556 461.51365 291.680132 461.51365 291.680132 459.918414 291.680132 454.395082 286.460819 452.587846C278.862367 449.956833 273.736502 443.027828 273.736502 435.16492 273.736502 427.298909 278.859171 420.372558 286.459485 417.742445L291.680132 415.935829 291.680132 410.411427 291.680132 408.816175 283.922556 408.816175 283.918615 416.57375 391.228463 416.628348 793.809563 416.628348 801.567139 416.628348 801.567139 408.870772 801.567139 408.130777 793.809563 408.130777 794.883553 415.813648C829.363153 410.993742 855.323943 381.872578 855.323943 347.214476 855.323943 308.881191 823.78482 277.855201 784.948891 277.855201 768.156812 277.855201 752.273749 283.756544 739.612501 294.307623L738.179879 295.881495C734.643929 301.040656 728.729662 304.203947 722.238774 304.203947 711.627636 304.203947 703.080898 295.809598 703.080898 285.521796 703.080898 279.623152 705.952427 274.191096 710.806202 270.635241L718.170252 265.240359 711.657953 258.843167 710.910821 258.109238 705.474513 263.643369 710.725648 269.353503C730.77203 250.918493 756.970232 240.484848 784.850091 240.484848 844.856522 240.484848 893.448285 288.254495 893.448285 347.117428 893.448285 405.976467 844.854334 453.750024 784.850091 453.750024L784.850091 453.750024 784.850091 453.750024ZM453.923995 714.30777C434.85184 714.30777 419.343593 729.595206 419.343593 748.505057 419.343593 767.414924 434.85184 782.702359 453.923995 782.702359 472.99615 782.702359 488.504398 767.414924 488.504398 748.505057 488.504398 729.595206 472.99615 714.30777 453.923995 714.30777L453.923995 714.30777 453.923995 714.30777ZM453.923995 729.822922C464.476781 729.822922 472.989246 738.214183 472.989246 748.505057 472.989246 758.795931 464.476781 767.187208 453.923995 767.187208 443.37121 767.187208 434.858744 758.795931 434.858744 748.505057 434.858744 738.214183 443.37121 729.822922 453.923995 729.822922L453.923995 729.822922 453.923995 729.822922ZM704.381595 714.30777C685.30944 714.30777 669.801177 729.595206 669.801177 748.505057 669.801177 767.414924 685.30944 782.702359 704.381595 782.702359 723.453735 782.702359 738.961998 767.414924 738.961998 748.505057 738.961998 729.595206 723.453735 714.30777 704.381595 714.30777L704.381595 714.30777 704.381595 714.30777ZM704.381595 729.822922C714.934365 729.822922 723.446846 738.214183 723.446846 748.505057 723.446846 758.795931 714.934365 767.187208 704.381595 767.187208 693.82881 767.187208 685.316329 758.795931 685.316329 748.505057 685.316329 738.214183 693.82881 729.822922 704.381595 729.822922L704.381595 729.822922 704.381595 729.822922ZM579.152787 714.30777C560.080632 714.30777 544.572385 729.595206 544.572385 748.505057 544.572385 767.414924 560.080632 782.702359 579.152787 782.702359 598.224943 782.702359 613.733205 767.414924 613.733205 748.505057 613.733205 729.595206 598.224943 714.30777 579.152787 714.30777L579.152787 714.30777 579.152787 714.30777ZM579.152787 729.822922C589.705573 729.822922 598.218054 738.214183 598.218054 748.505057 598.218054 758.795931 589.705573 767.187208 579.152787 767.187208 568.600017 767.187208 560.087536 758.795931 560.087536 748.505057 560.087536 738.214183 568.600017 729.822922 579.152787 729.822922L579.152787 729.822922 579.152787 729.822922ZM203.361435 714.30777C184.240919 714.30777 168.688407 729.587821 168.688407 748.505057 168.688407 767.420494 184.245232 782.702359 203.361435 782.702359 222.477638 782.702359 238.034463 767.420494 238.034463 748.505057 238.034463 729.587821 222.481951 714.30777 203.361435 714.30777L203.361435 714.30777 203.361435 714.30777ZM203.361435 729.822922C213.973938 729.822922 222.519312 738.218574 222.519312 748.505057 222.519312 758.789167 213.970168 767.187208 203.361435 767.187208 192.752702 767.187208 184.203559 758.789167 184.203559 748.505057 184.203559 738.218574 192.748932 729.822922 203.361435 729.822922L203.361435 729.822922 203.361435 729.822922ZM883.264776 556.476168 489.628579 556.033381 481.862284 556.024646 481.862284 563.790941 481.862284 565.386178 489.619859 565.386178 492.153499 558.054028C488.352737 556.740655 484.591787 556.033365 480.740662 556.033365 461.67386 556.033365 446.160244 571.272782 446.160244 590.139687 446.160244 609.006592 461.67386 624.245993 480.740662 624.245993 484.601204 624.245993 488.365444 623.53965 492.1627 622.222165L489.619859 614.89318 481.862284 614.89318 481.862284 616.488417 481.862284 624.245993 489.619859 624.245993 498.585491 624.245993 901.158571 624.136813 901.156461 616.379237 893.398885 616.379237 893.398885 617.185963 893.398885 623.928242 900.07538 624.86784C926.940408 628.648603 947.087779 651.273076 947.087779 678.090116 947.087779 707.799366 922.555392 731.934239 892.227879 731.934239 879.12088 731.934239 866.761852 727.378246 856.929497 719.200551L858.398208 720.823839C852.021046 711.378851 841.310161 705.585509 829.616562 705.585509 810.54976 705.585509 795.036144 720.82491 795.036144 739.691815 795.036144 751.083101 800.75731 761.510245 810.095104 767.82156L814.439176 761.394347 809.002868 755.860232 808.126076 756.72154 802.26892 762.475163 808.345228 767.99685C831.081146 788.657524 860.726737 800.328844 892.227863 800.328844 960.688531 800.328844 1016.242424 745.666777 1016.242424 678.181112 1016.242424 610.695432 960.688531 556.033365 892.227863 556.033365 889.515365 556.033365 887.445008 556.146998 882.921301 556.479814 882.804208 556.48844 882.804208 556.48844 882.687395 556.49702L882.68724 556.497036 883.264776 556.476168 883.264776 556.476168ZM883.824857 571.97042 883.825012 571.97042C883.942524 571.961778 883.942524 571.961778 884.059741 571.953152 888.207251 571.648 890.019871 571.548517 892.227863 571.548517 952.175461 571.548517 1000.727273 619.320925 1000.727273 678.181112 1000.727273 737.041284 952.175461 784.813692 892.227863 784.813692 864.620451 784.813692 838.684998 774.603031 818.779539 756.514475L813.562384 762.255655 818.998691 767.789785 819.875499 766.928477 826.643689 760.279909 818.783263 754.967149C813.650618 751.498054 810.551296 745.84936 810.551296 739.691815 810.551296 729.456237 819.057214 721.10066 829.616562 721.10066 836.111546 721.10066 842.023641 724.298426 845.539638 729.505839L847.008349 731.129127C859.601237 741.602785 875.461306 747.449391 892.227879 747.449391 931.067966 747.449391 962.60293 716.425387 962.60293 678.090116 962.60293 643.458731 936.682698 614.351624 902.237556 609.504085L901.156461 617.185963 908.914036 617.185963 908.914036 616.379237 908.914036 608.619567 901.154366 608.621661 498.583397 608.730841 489.619859 608.730841 489.619859 616.488417 497.377435 616.488417 497.377435 614.89318 497.377435 603.990388 487.077004 607.56421C484.834878 608.342125 482.763342 608.730841 480.740662 608.730841 470.181314 608.730841 461.675396 600.375265 461.675396 590.139687 461.675396 579.904093 470.181314 571.548517 480.740662 571.548517 482.754001 571.548517 484.831418 571.939204 487.086204 572.718344L497.377435 576.27451 497.377435 565.386178 497.377435 563.790941 489.619859 563.790941 489.611124 571.548517 883.247321 571.991304 883.824857 571.97042 883.824857 571.97042ZM230.283062 556.033365C211.21626 556.033365 195.70266 571.272782 195.70266 590.139687 195.70266 609.006592 211.21626 624.245993 230.283062 624.245993 249.349865 624.245993 264.863465 609.006592 264.863465 590.139687 264.863465 571.272782 249.349865 556.033365 230.283062 556.033365L230.283062 556.033365 230.283062 556.033365ZM230.283062 571.548517C240.842395 571.548517 249.348313 579.904093 249.348313 590.139687 249.348313 600.375265 240.842395 608.730841 230.283062 608.730841 219.723729 608.730841 211.217811 600.375265 211.217811 590.139687 211.217811 579.904093 219.723729 571.548517 230.283062 571.548517L230.283062 571.548517 230.283062 571.548517ZM355.511855 556.033365C336.445052 556.033365 320.931452 571.272782 320.931452 590.139687 320.931452 609.006592 336.445052 624.245993 355.511855 624.245993 374.578657 624.245993 390.092272 609.006592 390.092272 590.139687 390.092272 571.272782 374.578657 556.033365 355.511855 556.033365L355.511855 556.033365 355.511855 556.033365ZM355.511855 571.548517C366.071203 571.548517 374.577121 579.904093 374.577121 590.139687 374.577121 600.375265 366.071203 608.730841 355.511855 608.730841 344.952522 608.730841 336.446604 600.375265 336.446604 590.139687 336.446604 579.904093 344.952522 571.548517 355.511855 571.548517L355.511855 571.548517 355.511855 571.548517ZM328.596402 714.30777C309.475887 714.30777 293.923375 729.587821 293.923375 748.505057 293.923375 767.420494 309.4802 782.702359 328.596402 782.702359 347.712605 782.702359 363.26943 767.420494 363.26943 748.505057 363.26943 729.589636 347.712605 714.30777 328.596402 714.30777L328.596402 714.30777 328.596402 714.30777ZM42.337978 408.810124C27.524918 408.810124 15.515152 420.607612 15.515152 435.158854 15.515152 449.710096 27.524918 461.5076 42.337978 461.5076 57.151054 461.5076 69.16082 449.710096 69.16082 435.158854 69.16082 420.607612 57.151054 408.810124 42.337978 408.810124L42.337978 408.810124ZM104.95547 563.790941C90.086834 563.790941 78.040017 575.58843 78.040017 590.139687 78.040017 604.690928 90.093009 616.488417 104.95547 616.488417 119.817945 616.488417 131.870922 604.690928 131.870922 590.139687 131.870922 575.58843 119.82412 563.790941 104.95547 563.790941L104.95547 563.790941ZM221.212455 311.94939C236.025515 311.94939 248.035281 300.109436 248.035281 285.509663 248.035281 270.90989 236.025515 259.069952 221.212455 259.069952 206.399379 259.069952 194.389613 270.90989 194.389613 285.509663 194.389613 300.115503 206.399379 311.94939 221.212455 311.94939L221.212455 311.94939ZM444.853388 285.509663C444.853388 300.115503 456.863139 311.94939 471.676214 311.94939 486.48929 311.94939 498.499056 300.109436 498.499056 285.509663 498.499056 270.90989 486.48929 259.069952 471.676214 259.069952 456.863139 259.069952 444.853388 270.90989 444.853388 285.509663L444.853388 285.509663ZM194.389613 435.158854C194.389613 420.607612 182.379846 408.810124 167.566786 408.810124 152.753711 408.810124 140.743944 420.607612 140.743944 435.158854 140.743944 449.710096 152.753711 461.5076 167.566786 461.5076 182.386021 461.5076 194.389613 449.710096 194.389613 435.158854L194.389613 435.158854ZM319.62458 285.509663C319.62458 300.115503 331.634347 311.94939 346.447422 311.94939 361.260497 311.94939 373.270249 300.109436 373.270249 285.509663 373.270249 270.90989 361.260497 259.069952 346.447422 259.069952 331.628172 259.069952 319.62458 270.90989 319.62458 285.509663L319.62458 285.509663ZM570.08218 285.509663C570.08218 300.115503 582.135172 311.94939 596.997632 311.94939 611.860108 311.94939 623.913084 300.109436 623.913084 285.509663 623.913084 270.90989 611.860108 259.069952 596.997632 259.069952 582.135172 259.069952 570.08218 270.90989 570.08218 285.509663L570.08218 285.509663ZM901.205861 347.117428C901.205861 283.938692 849.110047 232.727273 784.850091 232.727273 754.131037 232.727273 726.270852 244.518695 705.474513 263.643369L706.221646 264.377297C699.639436 269.199407 695.323322 276.835933 695.323322 285.521796 695.323322 300.127635 707.376314 311.961522 722.238774 311.961522 731.544033 311.961522 739.744008 307.321375 744.578793 300.267148 755.489466 291.174881 769.530694 285.612777 784.948891 285.612777 819.527121 285.612777 847.566367 313.19282 847.566367 347.214476 847.566367 378.270084 824.182831 403.884885 793.809563 408.130777L793.809563 408.870772 391.232419 408.870772 283.922556 408.816175 283.922556 410.411427C273.493504 414.020422 265.978927 423.688906 265.978927 435.16492 265.978927 446.640935 273.499679 456.309419 283.922556 459.918414L283.922556 461.51365 775.970894 461.51365C778.910037 461.283173 781.849197 461.5076 784.850091 461.5076 849.110047 461.5076 901.205861 410.290114 901.205861 347.117428L901.205861 347.117428ZM453.923995 722.065346C439.11092 722.065346 427.101168 733.905284 427.101168 748.505057 427.101168 763.10483 439.11092 774.944784 453.923995 774.944784 468.737071 774.944784 480.746822 763.10483 480.746822 748.505057 480.746822 733.905284 468.737071 722.065346 453.923995 722.065346L453.923995 722.065346ZM704.381595 722.065346C689.56852 722.065346 677.558753 733.905284 677.558753 748.505057 677.558753 763.10483 689.56852 774.944784 704.381595 774.944784 719.194655 774.944784 731.204422 763.10483 731.204422 748.505057 731.204422 733.905284 719.194655 722.065346 704.381595 722.065346L704.381595 722.065346ZM579.152787 722.065346C564.339728 722.065346 552.329961 733.905284 552.329961 748.505057 552.329961 763.10483 564.339728 774.944784 579.152787 774.944784 593.965863 774.944784 605.97563 763.10483 605.97563 748.505057 605.97563 733.905284 593.965863 722.065346 579.152787 722.065346L579.152787 722.065346ZM203.361435 722.065346C188.492784 722.065346 176.445983 733.905284 176.445983 748.505057 176.445983 763.10483 188.49896 774.944784 203.361435 774.944784 218.223895 774.944784 230.276887 763.10483 230.276887 748.505057 230.276887 733.905284 218.23007 722.065346 203.361435 722.065346L203.361435 722.065346ZM883.256056 564.233728 489.619859 563.790941 489.619859 565.386178C486.828901 564.421756 483.871216 563.790941 480.740662 563.790941 465.927587 563.790941 453.91782 575.58843 453.91782 590.139687 453.91782 604.690928 465.927587 616.488417 480.740662 616.488417 483.871216 616.488417 486.822726 615.863668 489.619859 614.89318L489.619859 616.488417 498.585491 616.488417 901.156461 616.379237 901.156461 617.185963C931.498868 621.456105 954.845355 647.058789 954.845355 678.090116 954.845355 712.111771 926.812284 739.691815 892.227879 739.691815 876.865257 739.691815 862.842539 734.208574 851.968915 725.164839 847.165021 718.049947 838.958856 713.343085 829.616562 713.343085 814.803487 713.343085 802.79372 725.140573 802.79372 739.691815 802.79372 748.705218 807.412395 756.645035 814.439176 761.394347L813.562384 762.255655C834.247571 781.052788 861.842246 792.571268 892.227863 792.571268 956.432244 792.571268 1008.484848 741.353782 1008.484848 678.181112 1008.484848 615.008427 956.432244 563.790941 892.227863 563.790941 889.196094 563.790941 886.226075 564.015368 883.256056 564.233728L883.256056 564.233728ZM230.283062 563.790941C215.469987 563.790941 203.460236 575.58843 203.460236 590.139687 203.460236 604.690928 215.469987 616.488417 230.283062 616.488417 245.096138 616.488417 257.105889 604.690928 257.105889 590.139687 257.105889 575.58843 245.096138 563.790941 230.283062 563.790941L230.283062 563.790941ZM355.511855 563.790941C340.698795 563.790941 328.689028 575.58843 328.689028 590.139687 328.689028 604.690928 340.698795 616.488417 355.511855 616.488417 370.32493 616.488417 382.334697 604.690928 382.334697 590.139687 382.334697 575.58843 370.32493 563.790941 355.511855 563.790941L355.511855 563.790941ZM328.596402 722.065346C313.727767 722.065346 301.68095 733.905284 301.68095 748.505057 301.68095 763.10483 313.733942 774.944784 328.596402 774.944784 343.458878 774.944784 355.511855 763.10483 355.511855 748.505057 355.511855 733.905284 343.458878 722.065346 328.596402 722.065346L328.596402 722.065346Z" p-id="1012"></path></svg>