<?xml version="1.0" standalone="no"?><!DOCTYPE svg PUBLIC "-//W3C//DTD SVG 1.1//EN" "http://www.w3.org/Graphics/SVG/1.1/DTD/svg11.dtd"><svg t="1481342374709" class="icon" style="" viewBox="0 0 1024 1024" version="1.1" xmlns="http://www.w3.org/2000/svg" p-id="755" xmlns:xlink="http://www.w3.org/1999/xlink" width="200" height="200"><defs><style type="text/css"></style></defs><path d="M905.308761 703.916984l-121.740692-70.287833 111.627357-34.878368c16.182564-5.056156 25.203008-22.275329 20.146852-38.457894-5.055133-16.182564-22.273283-25.204032-38.457894-20.146852l-165.606759 51.744501-137.878231-79.604012 135.133723-78.019934 168.351266 52.602032c3.048429 0.952698 6.131651 1.406023 9.16473 1.404999 13.07069 0 25.188682-8.416693 29.293163-21.551852 5.056156-16.183588-3.963265-33.401738-20.146852-38.457894l-114.370841-35.735899 123.4271-71.260997c14.683421-8.478092 19.713994-27.252691 11.235902-41.936111s-27.252691-19.713994-41.935088-11.236925l-121.739669 70.28681 25.607214-114.109897c3.713578-16.543791-6.688329-32.963763-23.231097-36.676317-16.551978-3.714602-32.964786 6.689353-36.676317 23.232121l-37.991266 169.291684-137.64594 79.469959L541.875424 304.176744l129.499399-119.281687c12.471033-11.486612 13.268188-30.90794 1.780553-43.378973-11.485589-12.471033-30.905894-13.267165-43.378973-1.781576l-87.900979 80.966033L541.875424 92.728938c0-16.954137-13.745049-30.699186-30.699186-30.699186s-30.699186 13.745049-30.699186 30.699186l0 126.45097-86.250386-79.4454c-12.470009-11.486612-31.893384-10.689457-43.378973 1.781576-11.486612 12.471033-10.689457 31.892361 1.781576 43.378973L480.475006 302.656111l0 155.982564-135.38648-78.165244-37.991266-169.290661c-3.712555-16.543791-20.135596-26.944676-36.676317-23.232121-16.543791 3.712555-26.944676 20.132526-23.232121 36.676317l25.607214 114.108874-122.348536-70.638827c-14.685467-8.477069-33.459043-3.446495-41.935088 11.236925-8.478092 14.683421-3.446495 33.458019 11.235902 41.936111l124.035968 71.611991-114.370841 35.735899c-16.182564 5.056156-25.203008 22.274306-20.146852 38.457894 4.104481 13.135158 16.220427 21.551852 29.293163 21.551852 3.032056 0 6.117324-0.453325 9.16473-1.404999l168.351266-52.602032 134.524856 77.667917-137.26834 79.251995-165.606759-51.744501c-16.185634-5.057179-33.401738 3.963265-38.457894 20.146852s3.963265 33.401738 20.146852 38.457894l111.627357 34.878368-122.350582 70.638827c-14.683421 8.477069-19.713994 27.252691-11.235902 41.935088 5.686513 9.849322 16.004509 15.35471 26.614148 15.35471 5.207605 0 10.486842-1.327228 15.32094-4.117784l124.036991-71.613014-26.237571 116.915803c-3.712555 16.543791 6.689353 32.964786 23.232121 36.676317 2.263553 0.508583 4.523013 0.75213 6.750751 0.75213 14.046924 0 26.721595-9.704013 29.925566-23.984251l38.620599-172.098613 134.756123-77.80197L480.475006 725.066677 352.628246 842.826707c-12.471033 11.486612-13.268188 30.90794-1.781576 43.378973 6.052856 6.570649 14.306844 9.900487 22.588461 9.900487 7.43432 0 14.891152-2.685155 20.790512-8.119935l86.250386-79.4454 0 122.275881c0 16.954137 13.745049 30.699186 30.699186 30.699186s30.699186-13.745049 30.699186-30.699186L541.874401 807.0202l87.900979 80.966033c12.472056 11.488659 31.892361 10.688433 43.378973-1.780553 11.487635-12.471033 10.689457-31.892361-1.780553-43.378973l-129.499399-119.281687 0-158.561295 137.016607 79.106686 38.620599 172.098613c3.204995 14.280238 15.878642 23.984251 29.925566 23.984251 2.226714 0 4.488221-0.243547 6.751774-0.75213 16.542768-3.711532 26.943652-20.132526 23.231097-36.676317l-26.237571-116.915803 123.428124 71.260997c4.835122 2.792603 10.112312 4.117784 15.32094 4.117784 10.609639 0 20.929682-5.506411 26.615171-15.35471C925.022755 731.169675 919.992181 712.394053 905.308761 703.916984z" p-id="756"></path></svg>