<?xml version="1.0" standalone="no"?><!DOCTYPE svg PUBLIC "-//W3C//DTD SVG 1.1//EN" "http://www.w3.org/Graphics/SVG/1.1/DTD/svg11.dtd"><svg t="1481342788097" class="icon" style="" viewBox="0 0 1024 1024" version="1.1" xmlns="http://www.w3.org/2000/svg" p-id="1508" xmlns:xlink="http://www.w3.org/1999/xlink" width="200" height="200"><defs><style type="text/css"></style></defs><path d="M228.052996 512.001023c0 8.468882 1.721201 16.868179 4.903683 24.589025 3.240811 7.751544 7.967462 14.925944 13.93743 20.894889 5.958712 5.958712 13.135158 10.688433 20.892843 13.899568 7.711636 3.208065 16.127306 4.932336 24.604374 4.932336 8.458649 0 16.866133-1.724271 24.580838-4.903683 7.749498-3.240811 14.925944-7.970532 20.884656-13.929244 5.977132-5.975085 10.704806-13.143345 13.915941-20.894889 3.211135-7.711636 4.932336-16.120143 4.932336-24.589025 0-8.43716-1.737574-16.844643-4.940522-24.585955-3.202948-7.819083-7.909134-14.965853-13.831007-20.87954l-0.077771-0.077771c-5.913687-5.92085-13.060457-10.627035-20.809955-13.831007-7.819083-3.202948-16.21838-4.940522-24.65554-4.940522-8.477069 0-16.892739 1.724271-24.617677 4.910846-7.826246 3.27765-15.002692 7.975649-20.87954 13.859659l-0.077771 0.077771c-5.884011 5.875824-10.582009 13.052271-13.831007 20.886703C229.774197 495.134891 228.052996 503.535211 228.052996 512.001023z" p-id="1509"></path><path d="M432.921967 341.759711c47.0025 47.007617 70.508867 108.633163 70.508867 170.241312 0 61.61122-23.506367 123.243929-70.508867 170.244382-7.160073 7.115048-10.718109 16.482393-10.718109 25.873274 0 9.342786 3.573385 18.710131 10.704806 25.841551l0.058328 0.061398c7.131421 7.173376 16.497743 10.763135 25.820062 10.763135 9.374508-0.074701 18.733667-3.634784 25.848715-10.726296l0.091074-0.091074c61.248969-61.278645 91.87857-141.620461 91.87857-221.971487 0-80.313164-30.645974-160.6427-91.916433-221.921345l-0.091074-0.091074c-7.123234-7.181563-16.497743-10.763135-25.811876-10.763135-9.367345 0.074701-18.733667 3.631714-25.856901 10.726296l-0.008186 0.082888c-7.136537 7.139607-10.718109 16.514115-10.718109 25.865087C422.203858 325.248665 425.785429 334.620104 432.921967 341.759711z" p-id="1510"></path><path d="M571.560514 930.095283c3.571339 3.536546 7.605212 6.196119 11.821233 7.946996 4.538363 1.88186 9.305947 2.840698 13.974269 2.848884l0.210801-0.074701c4.668323 0.066515 9.435906-0.88516 13.969153-2.765997 4.221138-1.750877 8.256034-4.418636 11.789511-7.954159 53.685713-53.683666 94.871741-115.015523 123.524315-180.378184 29.715789-67.788919 46.107107-140.027174 49.166793-212.681914l-0.045025-50.067302c-3.013637-72.638367-19.405979-144.874575-49.121767-212.671681-28.652574-65.358567-69.829392-126.687354-123.524315-180.38944-7.144724-7.144724-16.511046-10.718109-25.856901-10.718109-9.387811 0-18.755156 3.558036-25.894763 10.666944-7.106862 7.181563-10.688433 16.557094-10.688433 25.908066 0 9.361205 3.573385 18.733667 10.712993 25.873274 101.154841 101.171214 151.750169 233.771231 151.750169 366.364085 0 132.594901-50.595328 265.203104-151.750169 366.367155-7.14677 7.093559-10.712993 16.474206-10.712993 25.870204C560.885384 913.63745 564.43728 923.011958 571.560514 930.095283z" p-id="1511"></path></svg>