<?xml version="1.0" standalone="no"?><!DOCTYPE svg PUBLIC "-//W3C//DTD SVG 1.1//EN" "http://www.w3.org/Graphics/SVG/1.1/DTD/svg11.dtd"><svg t="1481342819915" class="icon" style="" viewBox="0 0 1024 1024" version="1.1" xmlns="http://www.w3.org/2000/svg" p-id="1634" xmlns:xlink="http://www.w3.org/1999/xlink" width="200" height="200"><defs><style type="text/css"></style></defs><path d="M889.472 818.688l-768 0c-52.928 0-96-43.072-96-96l0-480c0-52.928 43.072-96 96-96l768 0c52.928 0 96 43.072 96 96l0 480C985.472 775.616 942.464 818.688 889.472 818.688zM121.472 210.688c-17.664 0-32 14.336-32 32l0 480c0 17.6 14.336 32 32 32l768 0c17.6 0 32-14.4 32-32l0-480c0-17.664-14.4-32-32-32L121.472 210.688z" p-id="1635"></path><path d="M320.512 347.904m-46.272 0a0.723 0.723 0 1 0 92.544 0 0.723 0.723 0 1 0-92.544 0Z" p-id="1636"></path><path d="M160.064 657.216c-8.192 0-16.384-3.136-22.656-9.408C124.928 635.264 124.992 614.976 137.472 602.496l160.384-159.808c12.416-12.416 32.512-12.48 45.056-0.128l162.496 159.872c12.608 12.352 12.8 32.704 0.384 45.248-12.416 12.608-32.704 12.736-45.248 0.384L320.64 510.4l-137.984 137.472C176.448 654.08 168.256 657.216 160.064 657.216z" p-id="1637"></path><path d="M844.032 636.032c-7.552 0-15.104-2.624-21.184-8.064L596.608 427.84l-161.92 145.152C421.568 584.768 401.344 583.744 389.504 570.496 377.728 557.312 378.816 537.088 392 525.312l183.168-164.096c12.096-10.752 30.336-10.816 42.56-0.128l247.488 219.008c13.248 11.712 14.528 31.936 2.752 45.12C861.632 632.384 852.8 636.032 844.032 636.032z" p-id="1638"></path><path d="M413.312 549.12" p-id="1639"></path></svg>