<?xml version="1.0" standalone="no"?><!DOCTYPE svg PUBLIC "-//W3C//DTD SVG 1.1//EN" "http://www.w3.org/Graphics/SVG/1.1/DTD/svg11.dtd"><svg t="1481342875266" class="icon" style="" viewBox="0 0 1000 1000" version="1.1" xmlns="http://www.w3.org/2000/svg" p-id="626" xmlns:xlink="http://www.w3.org/1999/xlink" width="200" height="200"><defs><style type="text/css"></style></defs><path d="M881.9381 882.8994l-91.219-33.1695v14.92687957564771c0 40.3007-32.6722 72.9715-72.9746 72.9715H133.9448111001403c-40.3024 0-72.9746-32.6708-72.9746-72.9715V499.79713754074737c0-40.3007 32.6722-72.9715 72.9746-72.9715h12.531030264751617C94.8137 390.5182 60.9612 330.5799 60.9612 262.6389 60.9612 151.8071 150.8141 61.958 261.6506 61.958c67.9438 0 127.8847 33.851 164.1936 85.511C462.1531 95.809 522.0939 61.958 590.0377 61.958 700.8742 61.958 790.7271 151.8071 790.7271 262.6389c0 67.9409-33.8525 127.8793-85.5146 164.1867H717.7435151243809c40.3024 0 72.9746 32.6708 72.9746 72.9715v14.92687957564771l91.219-33.1695c40.3024 0 54.7312 14.4282 54.7312 54.7289v291.8880998682893C936.6693 868.4712 922.2405 882.8994 881.9381 882.8994zM389.3534 262.541c-0.053-70.4832-57.2046-127.6075-127.7018-127.6075-70.5301 0-127.7108 57.1772-127.7108 127.7054s57.1796 127.7054 127.7108 127.7054c70.4982 0 127.6498-57.1253 127.7018-127.6075 0-0.032-0.004-0.065-0.004-0.0969S389.3534 262.573 389.3534 262.541zM590.0387 134.9335c-70.5301 0-127.7108 57.1772-127.7108 127.7054s57.1796 127.7054 127.7108 127.7054 127.7108-57.1772 127.7108-127.7054S660.5689 134.9335 590.0387 134.9335zM425.8442 377.8078c-13.3865 19.0461-30.0249 35.6189-49.0518 49.0168h98.10260674211202C455.8701 413.4267 439.2316 396.8539 425.8442 377.8078zM735.9879 554.526c0-40.3007-32.6722-72.9715-72.9746-72.9715H188.67600206268813c-40.3024 0-72.9746 32.6708-72.9746 72.9715v255.40183755413827c0 40.3007 32.6722 72.9715 72.9746 72.9715h474.3373214635492c40.3024 0 72.9746-32.6708 72.9746-72.9715L735.9879 554.526 735.9879 554.526zM881.9381 591.0123c0-20.1523-16.3346-36.4863-36.4878-36.4863l-54.7312 31.2728v192.85724278938878l54.7312 31.2728c20.1532 0 36.4878-16.3339 36.4878-36.4863V591.0122936648952z" p-id="627"></path></svg>