<?xml version="1.0" standalone="no"?><!DOCTYPE svg PUBLIC "-//W3C//DTD SVG 1.1//EN" "http://www.w3.org/Graphics/SVG/1.1/DTD/svg11.dtd"><svg t="1481393609102" class="icon" style="" viewBox="0 0 1024 1024" version="1.1" xmlns="http://www.w3.org/2000/svg" p-id="777" xmlns:xlink="http://www.w3.org/1999/xlink" width="200" height="200"><defs><style type="text/css"></style></defs><path d="M290.013 227.793c24.658-0.081 43.793-19.749 44.153-45.635 0.199-14.257 0.037-28.511 0.037-42.762l0.075 0c0-0.229 0.001-0.458 0.001-0.687 0.004-14.338 0.115-28.674-0.038-43.005-0.126-11.842-3.551-22.611-11.825-31.379-13.027-13.803-30.922-17.849-48.442-11.184-17.106 6.511-28.047 21.815-28.259 40.931-0.168 14.877-0.214 29.757-0.212 44.638 0.001 14.247 0.045 28.495 0.07 42.741C245.623 207.455 265.286 227.885 290.013 227.793zM737.217 228.623c24.658-0.081 43.793-19.749 44.153-45.635 0.199-14.257 0.037-28.511 0.037-42.762l0.075 0c0-0.229 0.001-0.458 0.001-0.687 0.004-14.338 0.115-28.674-0.038-43.005-0.126-11.842-3.551-22.611-11.825-31.379-13.027-13.803-30.922-17.849-48.442-11.184-17.106 6.511-28.047 21.815-28.259 40.931-0.168 14.877-0.214 29.757-0.212 44.638 0.001 14.247 0.045 28.495 0.07 42.741C692.827 208.285 712.489 228.715 737.217 228.623zM544.141 556.827l117.422 0 0 87.472L544.141 644.299 544.141 556.827zM722.855 437.604l117.236 0 0 87.59L722.855 525.194 722.855 437.604zM722.916 556.505l117.112 0 0 87.795L722.916 644.3 722.916 556.505zM365.473 676.125l117.23 0 0 87.615-117.23 0L365.473 676.125zM544.235 675.945l117.248 0 0 87.454L544.235 763.399 544.235 675.945zM722.973 676.051l117.323 0 0 87.385L722.973 763.436 722.973 676.051zM186.425 676.2l117.43 0 0 87.454-117.43 0L186.425 676.2 186.425 676.2zM186.692 556.946l117.225 0 0 87.607L186.692 644.553 186.692 556.946 186.692 556.946zM543.98 437.828l117.43 0 0 87.447L543.98 525.275 543.98 437.828zM365.212 557.015l117.409 0 0 87.454L365.212 644.469 365.212 557.015zM365.492 437.772l117.253 0 0 87.552L365.492 525.324 365.492 437.772zM942.384 138.709 832.132 138.709c-0.034 5.253-0.078 10.505-0.15 15.758-0.746 53.559-38.755 94.769-88.796 98.193-2.279 0.268-4.598 0.425-6.959 0.433-2.907 0.011-5.758-0.202-8.548-0.6-48.994-4.503-86.682-46.683-86.782-99.551-0.008-4.744-0.019-9.489-0.029-14.233L383.419 138.709c-0.034 5.253-0.078 10.505-0.15 15.758-0.778 55.835-42.049 98.256-95.234 98.431-53.335 0.199-95.745-43.868-95.851-99.956-0.008-4.744-0.019-9.489-0.029-14.233L81.615 138.709c-9.612 0-17.405 7.792-17.405 17.404l0 738.421c0 9.612 7.793 17.404 17.405 17.404l860.769 0c9.612 0 17.405-7.792 17.405-17.404l0-738.421C959.789 146.501 951.997 138.709 942.384 138.709zM907.425 853.969 120.378 853.969l0-24.29 0-27.895 0-429.867 786.296 0 0 429.867 0.75 0 0 52.186L907.425 853.97z" p-id="778"></path></svg>