<?xml version="1.0" standalone="no"?><!DOCTYPE svg PUBLIC "-//W3C//DTD SVG 1.1//EN" "http://www.w3.org/Graphics/SVG/1.1/DTD/svg11.dtd"><svg t="1481579802234" class="icon" style="" viewBox="0 0 1024 1024" version="1.1" xmlns="http://www.w3.org/2000/svg" p-id="925" xmlns:xlink="http://www.w3.org/1999/xlink" width="200" height="200"><defs><style type="text/css"></style></defs><path d="M932.389137 340.600515c5.954578-15.675504 9.455066-32.656448 9.455066-50.475873 0-73.339817-55.707858-133.63887-127.080994-141.086353-20.069008-54.030896-72.00711-92.66919-133.038981-92.66919-26.647334 0-51.518861 7.549737-72.842182 20.379178-1.721272-3.057388-3.551615-6.036381-5.538746-8.882445-0.518086-0.913467-1.097524-1.700821-1.670145-2.559753-1.404285-2.038259-2.92105-4.076517-4.386687-6.114776-0.732819-0.835073-1.356567-1.642877-2.041667-2.508626-1.666737-1.987132-3.292572-3.943587-5.068379-5.825057-0.627156-0.70896-1.145242-1.332708-1.775807-1.987132-2.195048-2.351837-4.386687-4.598012-6.741932-6.793059-0.160198-0.105662-0.364705-0.313578-0.572621-0.521494-5.439901-5.041111-11.292225-9.642531-17.349058-13.71564-0.105662-0.054535-0.105662-0.054535-0.105662-0.105662-3.033529-1.987132-6.118184-3.837925-9.301685-5.617141-0.211324-0.105662-0.41924-0.211324-0.630565-0.313578-3.135782-1.775807-6.271565-3.370966-9.567545-4.938857-0.051127 0-0.098845 0-0.153381-0.051127l0 0.051127c-18.030749-8.228021-38.041814-12.931694-59.150402-12.931694-70.544881 0-129.068126 51.730186-139.83204 119.268806-5.801198-0.651016-11.704649-1.124792-17.556974-1.124792-78.380929 0-141.921426 63.516638-141.921426 141.843031 0 3.841334 0.313578 7.600864 0.627156 11.391071C146.43593 300.469316 119.993103 344.731567 119.993103 395.180172c0 44.572421 20.641629 84.366183 52.882245 110.389769-0.211324 2.508626-0.41924 5.017252-0.41924 7.651991 0 78.37752 63.485962 141.839623 141.921426 141.839623 20.900672 0 40.758356-4.540068 58.57778-12.747638 29.984216 21.06087 69.737076 35.972879 114.486737 41.647963l0 339.993809 94.581335 0L582.023387 681.858862c23.409298-4.090151 45.264339-10.740055 64.798219-19.475936 15.937955 12.488595 27.588069 19.121456 28.631058 19.752021 17.972806 8.153034 37.885024 12.645384 58.942486 12.645384 73.261423 0 133.666137-55.806703 141.09317-127.265051 50.68038-18.76016 87.839403-65.65715 92.273808-121.675178 0.320395-3.735671 0.41924-7.600864 0.41924-11.391071C968.02117 398.448885 954.486178 365.632239 932.389137 340.600515z" p-id="926"></path></svg>